<svg width="24" height="24" viewBox="0 0 24 24" fill="none" xmlns="http://www.w3.org/2000/svg">
<path d="M12.99 22H11.01C9.32 22 8 20.68 8 18.99V17.39C8 16.55 7.79 16.25 7.51 15.94C6.54 14.87 6 13.47 6 11.99C6 8.69 8.69 6 12 6C15.31 6 18 8.69 18 11.99C18 13.45 17.47 14.85 16.49 15.94C16.21 16.25 16 16.55 16 17.38V18.99C16 20.68 14.68 22 12.99 22ZM10 18V18.99C10 19.58 10.42 20 11.01 20H12.99C13.58 20 14 19.58 14 18.99V18H10ZM9.81 16H14.19C14.38 15.37 14.7 14.95 15.01 14.6C15.65 13.89 16 12.96 16 11.99C16 9.79 14.21 8 12 8C9.79 8 8 9.79 8 11.99C8 12.97 8.35 13.89 8.99 14.6C9.38 15.03 9.65 15.49 9.81 16ZM22 12.99H19V10.99H22V12.99ZM5 12.99H2V10.99H5V12.99ZM17.65 7.76L16.24 6.35L18.36 4.23L19.77 5.64L17.65 7.76ZM6.34 7.75L4.22 5.63L5.63 4.22L7.75 6.34L6.34 7.75ZM13 5H11V2H13V5Z" fill="#323942"/>
</svg>
