<svg width="268" height="195" viewBox="0 0 268 195" fill="none" xmlns="http://www.w3.org/2000/svg">
<path d="M160.938 111.395L162.116 102.382C162.116 102.382 169.138 97.3357 175.82 90.6072C182.5 83.8786 186.917 74.5586 187.456 71.254C187.995 67.9472 187.605 66.9187 187.605 66.9187C187.605 66.9187 185.06 66.7441 183.124 65.3452C181.189 63.9462 180.162 62.6026 180.162 62.6026C180.162 62.6026 178.344 63.2223 175.959 66.7463C173.574 70.2681 170.135 73.8964 165.524 78.253C160.923 82.5968 153.116 85.2775 153.116 85.2775C153.116 85.2775 146.697 89.7043 140.747 86.9831C138.505 85.9568 138.137 83.0034 138.137 83.0034C138.137 83.0034 127.99 79.4475 123.49 68.273C119.922 59.413 120.134 53.3466 119.334 51.888C118.534 50.4316 116.203 52.8207 113.564 52.563C110.924 52.3075 109.793 51.3174 109.078 51.6708C106.98 52.7099 106.392 60.2668 108.822 71.4179C111.251 82.5691 120.138 90.933 120.138 90.933L111.356 127.369C111.112 128.379 111.589 129.422 112.513 129.903C117.17 132.326 132.238 138.542 156.959 133.461C157.931 133.261 158.664 132.463 158.769 131.483L160.938 111.395Z" fill="#C2C2C2"/>
<path d="M142.274 80.8167C142.223 80.8167 142.174 80.8082 142.122 80.7891C137.613 79.0963 135.145 74.8994 135.834 70.0957C136.495 65.4879 139.573 59.907 139.703 59.6707C139.735 59.6174 142.225 55.5952 146.541 57.0091C146.766 57.0836 146.888 57.3242 146.813 57.5478C146.74 57.7713 146.496 57.8927 146.274 57.8182C142.612 56.6173 140.531 59.9539 140.443 60.0965C140.42 60.1391 137.318 65.7626 136.679 70.215C136.039 74.6737 138.238 78.4191 142.422 79.9906C142.642 80.0736 142.753 80.3185 142.672 80.5399C142.61 80.7124 142.445 80.8167 142.274 80.8167Z" fill="black"/>
<path d="M150.132 80.4269C149.993 80.4269 149.858 80.3609 149.775 80.2374C149.645 80.0415 149.698 79.7775 149.895 79.6476C149.931 79.6242 153.497 77.2266 154.252 73.9602C154.28 73.841 154.357 73.7409 154.463 73.6813C154.57 73.6238 154.699 73.6132 154.814 73.6536C155.862 74.0305 157.173 73.0553 157.943 71.9906C158.746 70.8834 159.237 69.3652 158.529 68.4645C158.209 68.0578 157.892 67.8704 157.552 67.896C156.814 67.945 156.068 68.9479 155.843 69.329C155.764 69.4632 155.616 69.5462 155.458 69.5398C155.3 69.5334 155.159 69.4419 155.09 69.3013C155.017 69.1544 153.469 65.9647 153.291 62.2086C152.365 62.3705 151.302 62.2683 150.303 61.8807C148.218 61.0695 146.93 59.283 146.768 56.9791C146.751 56.7449 146.928 56.5405 147.166 56.5255C147.403 56.5085 147.606 56.6852 147.621 56.9216C147.758 58.8848 148.851 60.403 150.616 61.0908C151.512 61.44 152.479 61.5187 153.276 61.3484C153.279 61.259 153.279 61.1695 153.283 61.0801C153.351 58.9615 154.081 58.476 154.511 58.3759C154.964 58.2694 155.42 58.5058 155.674 58.9764C156.003 59.5896 155.952 60.567 155.092 61.3761C154.827 61.6252 154.504 61.8254 154.138 61.9723C154.228 64.6531 155.097 67.1124 155.563 68.2558C155.988 67.7406 156.671 67.106 157.492 67.0507C158.125 67.0081 158.701 67.3083 159.203 67.9428C159.862 68.7754 160.108 70.4682 158.639 72.4931C157.383 74.2264 155.974 74.6927 154.977 74.5671C153.972 77.9463 150.521 80.2608 150.37 80.3609C150.295 80.4035 150.213 80.4269 150.132 80.4269ZM154.72 59.1999C154.714 59.1999 154.709 59.1999 154.703 59.2021C154.573 59.2319 154.196 59.6322 154.138 61.0226C154.273 60.9438 154.395 60.8544 154.502 60.7522C155.032 60.2539 155.092 59.7025 154.917 59.3767C154.861 59.2702 154.78 59.1999 154.72 59.1999Z" fill="black"/>
<path d="M159.302 69.393C159.152 69.393 159.007 69.3142 158.93 69.1758C158.814 68.9714 158.887 68.7116 159.09 68.5966C159.18 68.5455 161.291 67.3105 161.411 64.47C161.526 61.7658 159.084 61.4422 158.981 61.4294C158.859 61.4145 158.75 61.3485 158.681 61.2505C158.613 61.1526 158.587 61.027 158.617 60.9077C158.63 60.8566 159.796 55.8166 156.985 53.3146C154.224 50.8553 151.225 52.7653 151.195 52.7844C151.018 52.9016 150.778 52.8696 150.637 52.7078C150.605 52.6695 147.318 48.9773 144.143 50.1356C139.198 51.9412 139.444 57.4199 139.457 57.652C139.466 57.8245 139.369 57.9863 139.213 58.0608C139.057 58.1354 138.869 58.1077 138.741 57.9906C138.736 57.9863 138.174 57.4902 137.62 57.6392C137.164 57.7627 136.766 58.31 136.471 59.2277C135.558 62.0682 136.76 63.135 136.811 63.1775C136.989 63.3287 137.015 63.597 136.865 63.7759C136.715 63.9547 136.45 63.9824 136.268 63.8355C136.197 63.778 134.553 62.3982 135.656 58.9679C136.05 57.7415 136.638 57.0175 137.404 56.8152C137.857 56.696 138.285 56.7875 138.619 56.9281C138.734 55.1756 139.474 50.9362 143.848 49.3371C147.076 48.1575 150.175 50.998 151.046 51.8944C151.993 51.4153 154.876 50.2932 157.556 52.678C160.262 55.0883 159.781 59.3044 159.537 60.6714C160.72 60.9865 162.371 62.0533 162.268 64.5041C162.127 67.8322 159.62 69.2759 159.513 69.3355C159.445 69.3738 159.374 69.393 159.302 69.393Z" fill="black"/>
<path d="M136.461 69.4743C136.416 69.4743 136.373 69.4679 136.328 69.453C135.577 69.2103 134.217 68.1691 134.431 65.9695C134.578 64.4513 135.323 63.327 136.324 63.1077C137.092 62.9416 137.817 63.3334 138.319 64.1873C138.439 64.3896 138.371 64.6515 138.167 64.7707C137.964 64.8899 137.701 64.8218 137.581 64.6174C137.404 64.315 137.027 63.8232 136.508 63.9381C136.005 64.0489 135.408 64.7558 135.282 66.0504C135.079 68.1265 136.578 68.6354 136.593 68.6418C136.818 68.7142 136.94 68.9548 136.867 69.1783C136.807 69.3593 136.64 69.4743 136.461 69.4743Z" fill="black"/>
<path d="M143.27 67.8535C143.191 67.8535 143.112 67.8322 143.041 67.7875C143.001 67.7619 142.06 67.1508 142.004 66.0074C141.948 64.8491 142.812 64.2337 143.508 63.7397C143.813 63.5204 144.104 63.316 144.258 63.1052C144.703 62.4983 144.613 61.34 143.831 60.7566C142.571 59.8175 140.78 60.8013 140.761 60.8119C140.556 60.9269 140.295 60.8545 140.179 60.6501C140.064 60.4457 140.135 60.1859 140.34 60.0709C140.432 60.0177 142.631 58.8019 144.342 60.0752C145.317 60.8013 145.783 62.4664 144.949 63.6077C144.714 63.9292 144.37 64.1741 144.006 64.4338C143.294 64.9406 142.83 65.3218 142.859 65.9691C142.894 66.6654 143.495 67.0678 143.501 67.0721C143.7 67.1977 143.76 67.4617 143.632 67.6597C143.55 67.7832 143.411 67.8535 143.27 67.8535Z" fill="black"/>
<path d="M144.479 73.8856C144.173 73.8856 143.861 73.8473 143.545 73.7643C142.073 73.3746 141.335 72.278 141.149 71.4561C140.995 70.7747 141.162 70.1466 141.598 69.7761C142.304 69.1799 145.568 69.446 147.048 69.7527C148.344 70.0188 148.646 70.3297 148.766 70.5703C148.924 70.8897 148.768 71.3411 148.299 71.9075C147.634 72.7124 146.182 73.8835 144.479 73.8856ZM142.148 70.4276C141.962 70.5895 141.9 70.9025 141.983 71.2666C142.116 71.8564 142.663 72.6464 143.765 72.9381C144.86 73.2277 145.874 72.7763 146.53 72.344C147.354 71.8032 147.824 71.1708 147.942 70.9089C147.183 70.4063 142.798 70.021 142.148 70.4276Z" fill="black"/>
<path d="M159.978 130.446C159.963 130.446 159.95 130.446 159.935 130.444C159.7 130.421 159.528 130.212 159.552 129.978L162.285 102.72C162.298 102.597 162.362 102.486 162.465 102.414C162.497 102.393 165.631 100.189 169.429 96.9756C172.924 94.018 177.715 89.5763 180.68 85.2049C187.563 75.0588 187.918 69.9378 187.518 67.7894C187.475 67.5573 187.629 67.3358 187.86 67.2932C188.091 67.2507 188.316 67.404 188.359 67.6339C189.297 72.6718 185.086 80.2287 181.388 85.6797C178.368 90.1321 173.515 94.6355 169.977 97.6293C166.64 100.453 163.808 102.503 163.12 102.995L160.405 130.061C160.38 130.282 160.196 130.446 159.978 130.446Z" fill="black"/>
<path d="M152.123 84.8964C152.108 84.8964 152.095 84.8964 152.084 84.8943C151.954 84.873 151.83 84.7857 151.766 84.6707C151.111 83.4677 151.785 78.9067 151.926 78.0039C151.962 77.7718 152.183 77.6142 152.414 77.6483C152.647 77.6845 152.807 77.9017 152.771 78.1359C152.493 79.9096 152.187 82.8395 152.416 83.9553C153.907 83.3697 160.257 80.2332 165.547 75.4402C168.357 72.8936 170.874 69.9615 173.097 67.3744C175.946 64.057 178.196 61.4379 179.89 61.0504C180.121 60.9993 180.35 61.142 180.401 61.3698C180.455 61.5998 180.309 61.8276 180.08 61.8808C178.66 62.2045 176.382 64.8555 173.747 67.928C171.51 70.5343 168.975 73.4855 166.124 76.0705C160.479 81.185 153.032 84.8964 152.123 84.8964Z" fill="black"/>
<path d="M144.504 87.358C142.969 87.358 141.675 87.0259 140.633 86.3637C138.421 84.9562 138.227 82.5927 138.22 82.4926C138.216 82.4458 138.22 82.401 138.233 82.3563L139.157 78.7834C139.215 78.5555 139.448 78.4171 139.677 78.4767C139.906 78.5364 140.043 78.7685 139.985 78.9963L139.082 82.4926C139.129 82.8418 139.44 84.5985 141.108 85.6525C143.127 86.9301 146.457 86.7512 150.737 85.1415C150.957 85.0584 151.206 85.1691 151.289 85.3884C151.372 85.6078 151.261 85.8548 151.041 85.9378C148.523 86.8832 146.342 87.358 144.504 87.358Z" fill="black"/>
<path d="M109.145 126.779C109.1 126.779 109.055 126.773 109.01 126.758C108.785 126.684 108.663 126.443 108.738 126.219L120.393 91.0327C119.426 89.9212 114.394 83.9847 111.023 77.2264C107.26 69.6823 106.18 53.704 109.151 50.4717L109.224 47.8293C109.23 47.5972 109.421 47.4141 109.652 47.4141C109.656 47.4141 109.66 47.4141 109.664 47.4141C109.9 47.4205 110.086 47.6163 110.079 47.8506L110.002 50.6591C110 50.7741 109.951 50.8806 109.866 50.9593C108.612 52.1177 108.043 56.4572 108.415 62.0147C108.8 67.7616 110.092 73.4447 111.788 76.8431C115.461 84.2041 121.137 90.5834 121.195 90.6473C121.296 90.7602 121.33 90.9199 121.283 91.0647L109.553 126.483C109.491 126.667 109.324 126.779 109.145 126.779Z" fill="black"/>
<path d="M138.646 82.8859C138.593 82.8859 138.537 82.8752 138.484 82.8539C138.375 82.8092 127.458 78.2206 122.987 66.6585C122.352 65.0147 121.802 62.3105 121.221 59.4487C120.5 55.9034 119.514 51.0486 118.564 50.6654C118.534 50.6526 118.496 50.6377 118.395 50.7058C114.094 53.6251 110.278 51.4723 110.118 51.3787C109.915 51.2594 109.844 50.9996 109.964 50.7952C110.084 50.593 110.344 50.5248 110.548 50.6419C110.689 50.7228 114.07 52.6094 117.914 50.001C118.31 49.7327 118.66 49.7838 118.887 49.8754C120.168 50.3949 120.941 53.7741 122.059 59.2784C122.609 61.9804 123.176 64.7741 123.785 66.3519C128.121 77.5626 138.704 82.0214 138.809 82.0661C139.027 82.1555 139.132 82.4047 139.042 82.6218C138.973 82.7879 138.813 82.8859 138.646 82.8859Z" fill="black"/>
<path d="M118.337 50.6102C118.141 50.6102 117.963 50.474 117.92 50.2759L117.292 47.4418C117.24 47.2119 117.386 46.984 117.617 46.9351C117.846 46.884 118.077 47.0288 118.126 47.2587L118.755 50.0928C118.806 50.3228 118.66 50.5506 118.429 50.5996C118.4 50.606 118.367 50.6102 118.337 50.6102Z" fill="black"/>
<path d="M187.732 66.6095C187.719 66.6095 187.706 66.6095 187.693 66.6073C182.194 66.1048 179.72 61.8569 179.617 61.6759C179.534 61.5268 179.544 61.3437 179.649 61.2074L181.816 58.3712C181.959 58.1838 182.226 58.1476 182.415 58.2903C182.603 58.433 182.639 58.6991 182.496 58.8865L180.509 61.4864C181.082 62.3296 183.324 65.2148 187.454 65.7237L188.333 63.5092C188.421 63.2899 188.669 63.1834 188.887 63.2707C189.107 63.358 189.214 63.605 189.126 63.8244L188.128 66.3391C188.066 66.503 187.907 66.6095 187.732 66.6095Z" fill="black"/>
<path d="M188.73 64.0935C188.673 64.0935 188.613 64.0807 188.557 64.0573C188.39 63.9849 184.466 62.2389 182.042 58.9448C181.954 58.8277 181.935 58.6744 181.989 58.5381C181.997 58.5168 182.801 56.4727 183.591 54.1348C183.702 53.809 183.864 52.9977 184.053 52.0587C184.919 47.7618 185.492 45.6623 186.414 45.3599C186.867 45.2109 187.291 45.279 187.635 45.5558C188.718 46.4267 188.778 49.4247 188.679 51.4774C189.088 50.8854 192.474 46.0285 194.21 45.0639C195.731 44.2186 196.448 44.5337 196.738 44.7978C197.044 45.0725 197.121 45.4983 196.942 45.9071C196.786 46.2627 195.759 47.9002 194.837 49.3481C196.758 47.8704 199.374 46.2031 200.646 46.9058C200.834 47.0101 200.952 47.1911 200.976 47.4062C201.003 47.6894 201.063 48.2792 198.219 50.9983C198.163 51.0515 198.107 51.1026 198.054 51.1559C199.654 50.4127 201.425 49.7761 202.282 50.0997C202.578 50.2105 202.781 50.4191 202.873 50.7045C202.956 50.9621 203.162 51.5924 198.976 54.6224C200.445 54.2944 202.024 54.1709 202.531 54.9588C202.608 55.078 202.682 55.2761 202.612 55.5507C202.533 55.8552 202.323 56.6601 197.928 59.36C195.817 60.6568 193.727 61.7832 193.706 61.7938C193.699 61.7981 193.693 61.8002 193.686 61.8045L188.912 64.0551C188.857 64.0807 188.795 64.0935 188.73 64.0935ZM182.872 58.6297C184.885 61.2445 187.969 62.8329 188.728 63.1992L193.31 61.0379C198.313 58.3465 201.547 56.0383 201.776 55.3761C201.356 54.9758 199.057 55.3335 196.728 56.1767C196.525 56.2513 196.3 56.1618 196.202 55.9702C196.103 55.7786 196.163 55.5443 196.343 55.4251C198.856 53.7217 201.662 51.5711 202.024 50.9195C202.013 50.9131 202 50.9067 201.983 50.9003C201.093 50.566 197.62 52.2205 195.436 53.5045C195.246 53.6173 195 53.5641 194.871 53.3852C194.743 53.2064 194.773 52.9573 194.942 52.8146C197.889 50.3148 199.823 48.2536 200.094 47.5999C198.901 47.3018 195.449 49.8038 193.271 51.7712C193.113 51.916 192.871 51.9182 192.707 51.7797C192.542 51.6413 192.508 51.405 192.623 51.224C193.943 49.1863 195.973 45.9987 196.161 45.5707C196.172 45.5473 196.204 45.4664 196.167 45.4323C196.084 45.3557 195.62 45.262 194.632 45.8113C193.276 46.5651 190.362 50.5448 189.355 52.014C189.222 52.2077 188.955 52.2588 188.76 52.1247C188.718 52.0949 188.681 52.0608 188.653 52.0204C188.615 52.6059 188.57 53.068 188.544 53.3107C188.519 53.5449 188.303 53.7131 188.074 53.6876C187.839 53.662 187.67 53.4534 187.693 53.2192C188.164 48.8456 187.58 46.6056 187.101 46.2202C187.019 46.1541 186.906 46.0967 186.686 46.1712C186.057 46.4608 185.212 50.6512 184.893 52.229C184.69 53.2362 184.53 54.0304 184.404 54.4094C183.758 56.3173 183.103 58.0335 182.872 58.6297Z" fill="black"/>
<path d="M186.743 58.757C186.647 58.757 186.548 58.7251 186.469 58.6569C186.29 58.5058 186.264 58.2396 186.416 58.0586C186.444 58.0245 187.113 57.2388 188.411 56.7491C189.59 56.3041 191.541 56.0251 194.141 57.2175C194.355 57.3155 194.449 57.5689 194.351 57.7818C194.253 57.9947 193.998 58.0884 193.784 57.9905C189.387 55.974 187.167 58.4972 187.072 58.6058C186.987 58.7038 186.865 58.757 186.743 58.757Z" fill="black"/>
<path d="M115.944 37.4936C115.944 37.4936 115.814 30.9993 114.888 29.2383C113.962 27.4774 113.05 27.6669 112.939 28.3291C112.828 28.9913 112.785 35.0556 112.785 35.0556C112.785 35.0556 110.847 27.6435 108.837 27.4987C107.678 27.4157 109.99 35.2472 109.99 35.2472C109.99 35.2472 106.542 28.2844 105.186 29.3725C104.546 29.8856 107.397 36.7122 107.397 36.7122C107.397 36.7122 104.311 32.609 103.043 33.1754C101.774 33.7418 106.871 43.1128 106.871 43.1128L109.628 47.5971C109.628 47.5971 113.895 48.3019 117.67 46.8902C117.67 46.8902 118.122 44.7375 118.755 42.3122C119.089 41.0368 122.07 34.7703 121.294 33.8014C119.679 31.7807 115.861 39.2226 115.861 39.2226" fill="white"/>
<path d="M112.16 48.5896C110.64 48.5896 109.57 48.4193 109.482 48.4044C109.36 48.3831 109.251 48.3128 109.187 48.2064L106.43 43.7221C106.426 43.7157 106.422 43.7093 106.42 43.7029C106.409 43.6816 105.277 41.6013 104.223 39.3655C102.028 34.7109 102.296 33.9209 102.396 33.6249C102.486 33.3588 102.661 33.2331 102.79 33.1757C103.645 32.7945 104.899 33.757 105.949 34.8301C104.112 30.0136 104.629 29.5984 104.841 29.4281C105.074 29.2407 105.361 29.1768 105.669 29.245C106.563 29.4409 107.696 30.9399 108.627 32.4325C108.61 32.358 108.593 32.2856 108.576 32.2111C107.69 28.3847 108.064 27.9248 108.244 27.7012C108.381 27.533 108.58 27.4457 108.794 27.4606C110.244 27.565 111.516 30.3884 112.312 32.671C112.336 30.9569 112.378 29.0278 112.443 28.6445C112.517 28.2037 112.815 27.8907 113.223 27.8269C113.613 27.7651 114.385 27.8907 115.193 29.4281C116.115 31.1805 116.28 37.0914 116.297 37.809C117.343 36.0374 119.043 33.5611 120.427 33.4227C120.87 33.3801 121.259 33.5525 121.556 33.9252C122.16 34.6811 121.488 36.7507 119.85 40.8177C119.492 41.7056 119.182 42.4743 119.095 42.8086C118.47 45.1955 118.019 47.3461 118.014 47.3674C117.984 47.5101 117.884 47.6272 117.747 47.6783C115.794 48.4065 113.735 48.5896 112.16 48.5896ZM109.812 47.591C110.65 47.6996 114.102 48.0509 117.225 46.9586C117.36 46.3347 117.756 44.5418 118.265 42.5914C118.365 42.206 118.669 41.4522 119.052 40.4983C119.653 39.0057 121.251 35.0367 120.881 34.449C120.737 34.2701 120.611 34.2573 120.508 34.2659C119.897 34.3276 118.177 35.8841 116.166 39.7999C116.059 40.0086 115.803 40.0937 115.591 39.9852C115.381 39.8787 115.298 39.621 115.405 39.4124C115.516 39.1952 115.732 38.7842 116.023 38.2732C115.978 38.2902 115.929 38.3009 115.878 38.3009C115.64 38.3094 115.446 38.1199 115.441 37.8835C115.405 36.1056 115.155 31.189 114.434 29.8178C113.908 28.8191 113.465 28.6466 113.356 28.6637C113.307 28.6722 113.29 28.7552 113.285 28.7829C113.208 29.245 113.155 33.0181 113.138 35.4434C113.136 35.6563 112.975 35.8373 112.763 35.8628C112.554 35.8905 112.351 35.7542 112.297 35.5477C111.555 32.7157 110.039 28.7382 108.879 28.34C108.749 29.0342 109.234 31.8129 110.325 35.5115C110.387 35.7244 110.276 35.948 110.071 36.0289C109.865 36.1098 109.63 36.0183 109.532 35.8202C108.411 33.5568 106.413 30.2777 105.485 30.0733C105.468 30.069 105.453 30.0669 105.44 30.0669C105.384 30.81 106.55 34.1381 107.716 36.9339C107.799 37.1319 107.72 37.3597 107.532 37.4662C107.344 37.5727 107.106 37.5237 106.978 37.3512C105.491 35.3774 103.772 33.8251 103.194 33.9316C103.021 34.6108 104.458 38.3051 107.166 43.2834L109.812 47.591Z" fill="black"/>
<path d="M114.224 44.6402C114.01 44.6402 113.826 44.4805 113.8 44.2655C113.781 44.1164 113.306 40.8032 108.522 40.0942C108.289 40.0601 108.126 39.8429 108.162 39.6108C108.197 39.3787 108.417 39.2169 108.648 39.2531C111.48 39.6726 112.96 40.9693 113.7 41.9829C114.517 43.1008 114.645 44.1228 114.65 44.1675C114.677 44.4017 114.508 44.6126 114.275 44.6402C114.258 44.6402 114.241 44.6402 114.224 44.6402Z" fill="black"/>
<path d="M143.259 63.2456C143.37 62.6777 143.085 62.1445 142.623 62.0546C142.16 61.9646 141.695 62.3521 141.583 62.92C141.472 63.4879 141.757 64.0211 142.219 64.111C142.682 64.2009 143.147 63.8134 143.259 63.2456Z" fill="black"/>
<path d="M149.642 64.4868C149.753 63.9189 149.468 63.3857 149.006 63.2958C148.543 63.2059 148.078 63.5933 147.966 64.1612C147.855 64.7291 148.14 65.2623 148.602 65.3522C149.065 65.4421 149.53 65.0547 149.642 64.4868Z" fill="black"/>
<path d="M138.135 82.999L134.636 115.013L152.322 85.7565C152.322 85.7565 142.293 92.006 138.135 82.999Z" fill="#016A2B"/>
<path d="M135.832 115.671C135.757 115.671 135.68 115.651 135.611 115.609C135.408 115.487 135.344 115.226 135.466 115.023L153.152 85.7667C153.274 85.5645 153.537 85.5006 153.741 85.6219C153.944 85.7433 154.008 86.0052 153.886 86.2075L136.2 115.464C136.118 115.596 135.977 115.671 135.832 115.671Z" fill="black"/>
<path d="M136.269 111.663C136.257 111.663 136.242 111.663 136.227 111.661C135.991 111.637 135.82 111.431 135.842 111.197L138.25 86.5117C138.274 86.2775 138.483 86.1029 138.716 86.1285C138.952 86.1519 139.123 86.3584 139.101 86.5927L136.695 111.278C136.674 111.499 136.488 111.663 136.269 111.663Z" fill="black"/>
<path d="M130.255 133.497C130.221 133.497 130.187 133.493 130.153 133.484C129.924 133.429 129.783 133.197 129.838 132.969L133.968 116.192C134.024 115.964 134.255 115.824 134.486 115.879C134.715 115.935 134.856 116.167 134.801 116.395L130.67 133.171C130.621 133.367 130.448 133.497 130.255 133.497Z" fill="black"/>
<path d="M17.5983 53.2409L7.20117 82.3973L32.8999 66.3062C42.2233 60.1164 21.8312 45.0942 17.5983 53.2409Z" fill="white"/>
<path d="M13.3294 79.3064C12.7134 79.728 12.0995 80.1539 11.4878 80.5818L8.00781 80.041C8.20887 79.3085 8.4142 78.5761 8.62595 77.8457L14.2042 78.7123C13.9111 78.9104 13.6203 79.1062 13.3294 79.3064Z" fill="#A7E92F"/>
<path d="M16.204 77.351C13.8277 77.0401 11.4492 76.693 9.08789 76.3098C9.31675 75.5794 9.55845 74.8554 9.81725 74.1357C12.8866 74.6276 15.9794 75.0556 19.0637 75.424C18.1097 76.0649 17.1558 76.7079 16.204 77.351Z" fill="#A7E92F"/>
<path d="M23.949 72.1409C23.0571 72.7392 22.1652 73.3375 21.2754 73.938C17.7527 73.2609 14.2278 72.5348 10.7393 71.7682C11.0323 71.0592 11.3317 70.3523 11.6355 69.6475C15.7122 70.5396 19.8381 71.3743 23.949 72.1409Z" fill="#A7E92F"/>
<path d="M30.1455 68.0038C30.015 68.0932 29.8182 68.2252 29.754 68.2699C28.9755 68.7937 28.1926 69.3111 27.4077 69.8307C22.5267 68.9747 17.6415 67.9952 12.8076 66.9008C12.8996 66.6793 12.9937 66.4579 13.0835 66.2364C13.2824 65.751 13.4685 65.2612 13.6525 64.7715C19.1109 66.0022 24.6357 67.086 30.1455 68.0038Z" fill="#A7E92F"/>
<path d="M14.5254 62.4102C14.797 61.7011 15.0879 61.0027 15.3275 60.2852L21.1046 61.9205C21.7078 62.0908 22.0586 62.7168 21.8874 63.3173C21.7163 63.9177 21.0875 64.2669 20.4843 64.0966L14.5254 62.4102Z" fill="#A7E92F"/>
<path d="M9.91802 83.221C9.59291 83.221 9.24213 83.0933 9.08385 82.8292C8.8336 82.4076 8.98332 81.9307 9.06246 81.673L9.08813 81.5879C12.0526 72.1189 13.4065 67.7985 16.7881 58.3743C16.8673 58.1528 17.1132 58.0378 17.3357 58.1166C17.5581 58.1954 17.6736 58.4403 17.5945 58.6617C14.2193 68.0689 12.8675 72.385 9.90519 81.8434L9.87952 81.9285C9.84957 82.0265 9.78113 82.2437 9.80466 82.3565C9.83888 82.3672 9.88807 82.3736 9.92871 82.3714C9.96293 82.3139 10.0121 82.265 10.072 82.2288C18.634 77.0397 27.1938 71.5844 35.512 66.0142C35.7087 65.8822 35.974 65.9354 36.1066 66.1292C36.2392 66.3251 36.1857 66.5891 35.9911 66.7211C27.7007 72.2743 19.173 77.7104 10.6388 82.8846C10.5447 83.0358 10.38 83.1486 10.1704 83.1955C10.0891 83.2125 10.0036 83.221 9.91802 83.221Z" fill="black"/>
<path d="M32.7788 67.7903C30.1501 67.7903 26.8113 66.3828 23.7869 63.7744C21.5496 61.8453 19.8556 59.5542 19.0151 57.3205C18.1424 54.9996 18.2857 53.0023 19.4236 51.6971C20.5593 50.3918 22.525 49.9617 24.9569 50.4919C27.2968 51.0008 29.8164 52.3444 32.0537 54.2714C36.8192 58.3788 38.7356 63.685 36.4171 66.3488C35.5701 67.3218 34.291 67.7903 32.7788 67.7903ZM23.0319 51.1221C21.7443 51.1221 20.7198 51.5076 20.0695 52.2549C19.1477 53.3153 19.0578 55.0081 19.815 57.0224C20.6064 59.124 22.2148 61.2938 24.3452 63.1314C28.6743 66.864 33.7991 68.0586 35.769 65.793C37.7389 63.5274 35.8203 58.6492 31.4912 54.9166C29.3609 53.079 26.9739 51.8035 24.7708 51.3244C24.1527 51.1882 23.5688 51.1221 23.0319 51.1221Z" fill="black"/>
<path d="M22.7404 57.7311C22.6698 57.7311 22.5993 57.714 22.5329 57.6778C22.3255 57.5628 22.2528 57.3052 22.3661 57.0987C27.2663 48.3259 27.2364 39.8045 22.2827 34.3067C21.5598 33.5039 20.6956 32.7182 19.2861 32.4201C19.0551 32.3711 18.9075 32.1454 18.9567 31.9154C19.0059 31.6855 19.2326 31.5386 19.4636 31.5875C21.117 31.9389 22.1373 32.8715 22.9201 33.7403C28.1283 39.5213 28.1989 48.4111 23.1147 57.516C23.0377 57.6523 22.8923 57.7311 22.7404 57.7311Z" fill="black"/>
<path d="M30.793 63.3269C30.6968 63.3269 30.6005 63.2949 30.5214 63.2289C30.3396 63.0799 30.3139 62.8116 30.4636 62.6284C37.0086 54.7543 46.8218 56.9752 51.4697 60.2245C51.6622 60.3586 51.7092 60.6248 51.5745 60.8185C51.4397 61.0102 51.1723 61.057 50.9777 60.9229C46.5802 57.8482 37.2995 55.7402 31.1224 63.1714C31.039 63.2736 30.9171 63.3269 30.793 63.3269Z" fill="black"/>
<path d="M37.7128 52.4886C37.623 52.4886 37.531 52.4609 37.454 52.4013C37.2658 52.2586 37.2294 51.9903 37.3727 51.8051C38.9042 49.8078 40.7201 48.0405 42.7713 46.5478C42.9617 46.4094 43.229 46.4499 43.368 46.6415C43.5071 46.831 43.4664 47.0972 43.2739 47.2356C41.289 48.6793 39.5309 50.3912 38.0508 52.3225C37.9695 52.4311 37.8412 52.4886 37.7128 52.4886Z" fill="black"/>
<path d="M48.0221 32.2246L49.8765 33.2531L51.8507 32.2991L51.3994 34.4731L52.963 35.9487L50.884 36.3107L49.8209 38.127L49.021 36.217L46.7666 35.8253L48.3772 34.3028L48.0221 32.2246Z" fill="#A7E92F"/>
<path d="M54.1177 58.9756L56.1496 60.102L58.3163 59.0565L57.8201 61.4413L59.5333 63.0574L57.2533 63.4556L56.0897 65.4465L55.2128 63.3534L52.7402 62.9233L54.5048 61.2539L54.1177 58.9756Z" fill="#A7E92F"/>
<path d="M33.1785 50.2516C32.9432 50.2516 32.7336 50.2069 32.6246 50.1814L30.5969 49.7363C30.3552 49.6831 30.2033 49.4468 30.2568 49.2062C30.3103 48.9655 30.5477 48.8144 30.7894 48.8676L32.8171 49.3126C33.2876 49.4148 33.3732 49.3275 33.3796 49.3169C33.4052 49.2849 33.3903 49.1487 33.294 49.0294C33.1999 48.9144 33.0609 48.8122 32.9133 48.7058C32.8256 48.6419 32.7379 48.578 32.6545 48.5099C31.9658 47.9456 31.5594 47.0428 31.5915 46.157C31.5957 46.0292 31.6556 45.91 31.754 45.8291C31.8524 45.7482 31.9807 45.7141 32.1091 45.7333L34.9046 46.1825C34.9453 46.1889 35.0265 46.2017 35.065 46.1996C35.0736 46.1847 35.0864 46.1527 35.0886 46.1144C35.0928 45.9973 35.0351 45.8461 34.9773 45.6992L34.3293 44.0043C34.1817 43.6189 33.8373 42.7161 34.3977 42.0709C34.6822 41.7451 35.1484 41.5833 35.6447 41.6386C36.0318 41.6812 36.3719 41.8388 36.6692 41.9772L38.53 42.8374C38.684 42.9077 38.8423 42.9822 38.9728 42.9886C39.0369 42.9929 39.0904 42.9673 39.099 42.9567C39.2102 42.7373 39.4776 42.6522 39.6979 42.7629C39.9182 42.8736 40.0059 43.144 39.8946 43.3634C39.7257 43.6955 39.3471 43.8978 38.9279 43.8765C38.6241 43.8616 38.3632 43.7402 38.1536 43.6444L36.2927 42.7842C36.0446 42.6692 35.7858 42.55 35.5441 42.5223C35.3474 42.501 35.1613 42.5521 35.0714 42.6522C34.8832 42.8694 35.0329 43.3463 35.1634 43.687L35.8115 45.3819C35.8906 45.5885 35.989 45.8461 35.9805 46.1421C35.9676 46.5467 35.7302 46.9044 35.388 47.0321C35.1484 47.1216 34.9153 47.0854 34.7613 47.0598L32.5347 46.7021C32.6353 47.1365 32.8791 47.5389 33.2234 47.8221C33.2919 47.8796 33.3667 47.9328 33.4395 47.9861C33.6191 48.1159 33.8223 48.2629 33.9892 48.4694C34.2801 48.8271 34.4341 49.4148 34.0897 49.862C33.8459 50.1707 33.4887 50.2516 33.1785 50.2516Z" fill="#A7E92F"/>
<path d="M33.2983 36.1446C33.2534 36.1446 33.2106 36.1425 33.1657 36.1404C32.5326 36.0999 31.8268 35.6847 31.7006 34.9693C31.5829 34.3007 32.0107 33.7854 32.3551 33.3723C32.462 33.2424 32.5647 33.1189 32.646 32.9997C33.1336 32.2864 32.9903 31.2068 32.3337 30.6425C32.1476 30.4828 32.1262 30.2018 32.2866 30.0144C32.447 29.8291 32.7294 29.8078 32.9176 29.9675C33.9186 30.8278 34.1282 32.412 33.3839 33.4979C33.2791 33.6534 33.1593 33.796 33.0416 33.9366C32.7251 34.3177 32.5369 34.5668 32.5797 34.816C32.6224 35.063 32.9454 35.2354 33.2192 35.2525C33.602 35.278 34.0106 35.1141 34.4041 34.9565C34.633 34.8649 34.8939 34.9757 34.9859 35.2035C35.0779 35.4313 34.9666 35.6911 34.7378 35.7827C34.3335 35.9445 33.8352 36.1446 33.2983 36.1446Z" fill="#A7E92F"/>
<path d="M53.0657 53.279C52.9737 53.279 52.8817 53.2513 52.8026 53.1917C52.6037 53.0469 52.5609 52.768 52.7064 52.5699C53.9405 50.8984 56.4237 50.3597 58.2439 51.369C58.4065 51.4606 58.5691 51.5606 58.7273 51.6586C59.2727 51.9993 59.7861 52.3208 60.2224 52.1569C60.5176 52.0461 60.7165 51.7353 60.9454 51.3775C61.1079 51.122 61.2769 50.8601 61.5057 50.6301C62.0854 50.0488 62.973 49.8189 63.7623 50.0467C64.5537 50.2746 65.1804 50.9389 65.3579 51.7395C65.4114 51.9801 65.2595 52.2165 65.0178 52.2697C64.7761 52.3229 64.5387 52.1718 64.4852 51.9311C64.3783 51.452 63.989 51.0368 63.5142 50.9006C63.0393 50.7643 62.4875 50.907 62.141 51.2562C61.9806 51.4159 61.8437 51.6288 61.7004 51.8545C61.4245 52.2846 61.1101 52.7743 60.539 52.9894C59.6877 53.3088 58.9262 52.8318 58.2546 52.4124C58.1049 52.3187 57.9573 52.2271 57.8119 52.1462C56.3959 51.3605 54.3897 51.7949 53.4293 53.0959C53.3395 53.2151 53.2026 53.279 53.0657 53.279Z" fill="#A7E92F"/>
<path d="M209.703 25.6401L218.887 51.3961L196.185 37.1809C187.95 31.7129 205.964 18.4431 209.703 25.6401Z" fill="white"/>
<path d="M213.474 48.6642C214.018 49.0368 214.561 49.4137 215.102 49.7906L218.178 49.3136C218 48.6663 217.818 48.019 217.63 47.376L212.702 48.1404C212.959 48.3129 213.218 48.4875 213.474 48.6642Z" fill="#A7E92F"/>
<path d="M210.936 46.9381C213.037 46.6635 215.137 46.3568 217.222 46.0183C217.021 45.3731 216.807 44.7322 216.579 44.0977C213.866 44.532 211.135 44.911 208.41 45.2347C209.253 45.8032 210.093 46.3696 210.936 46.9381Z" fill="#A7E92F"/>
<path d="M204.094 42.3345C204.881 42.8626 205.668 43.3928 206.457 43.923C209.569 43.3246 212.684 42.6837 215.764 42.0066C215.505 41.3806 215.239 40.7567 214.972 40.1328C211.37 40.9207 207.726 41.6574 204.094 42.3345Z" fill="#A7E92F"/>
<path d="M198.62 38.6808C198.736 38.7595 198.909 38.8767 198.967 38.9171C199.655 39.3813 200.346 39.837 201.039 40.2948C205.351 39.5389 209.667 38.6722 213.937 37.7055C213.855 37.5096 213.772 37.3138 213.693 37.1179C213.517 36.6899 213.353 36.2576 213.19 35.8232C208.367 36.9113 203.488 37.8695 198.62 38.6808Z" fill="#A7E92F"/>
<path d="M212.42 33.7384C212.18 33.1124 211.922 32.4949 211.71 31.8604L206.607 33.304C206.072 33.4552 205.764 34.0067 205.916 34.539C206.068 35.0692 206.622 35.378 207.156 35.2268L212.42 33.7384Z" fill="#A7E92F"/>
<path d="M216.494 52.1736C216.413 52.1736 216.331 52.1651 216.259 52.148C216.062 52.1033 215.908 52.0011 215.818 51.8606C208.281 47.2911 200.75 42.4895 193.43 37.5858C193.234 37.4538 193.182 37.1897 193.315 36.9938C193.447 36.7979 193.713 36.7468 193.909 36.8789C201.257 41.7997 208.815 46.6183 216.381 51.2026C216.432 51.2324 216.475 51.2729 216.507 51.3197C216.52 51.3197 216.532 51.3176 216.545 51.3155C216.547 51.2516 216.524 51.1451 216.477 50.9918L216.451 50.9109C213.835 42.5598 212.642 38.7484 209.66 30.442C209.581 30.2205 209.697 29.9778 209.919 29.8969C210.141 29.8181 210.385 29.9331 210.467 30.1545C213.455 38.478 214.648 42.2958 217.268 50.6575L217.294 50.7384C217.367 50.9727 217.504 51.4092 217.27 51.7988C217.114 52.0586 216.791 52.1736 216.494 52.1736Z" fill="black"/>
<path d="M196.293 38.5399C194.941 38.5399 193.799 38.1225 193.041 37.2517C190.975 34.8775 192.671 30.159 196.9 26.5115C201.131 22.864 206.063 21.8675 208.129 24.2417C210.195 26.6158 208.499 31.3343 204.271 34.9818C201.591 37.2921 198.628 38.5399 196.293 38.5399ZM204.914 23.8286C202.782 23.8286 199.935 25.0231 197.46 27.1545C193.722 30.3783 191.993 34.7455 193.687 36.6917C195.381 38.6378 199.969 37.5583 203.708 34.3345C207.447 31.1108 209.173 26.7436 207.481 24.7974C206.91 24.1416 206.005 23.8286 204.914 23.8286Z" fill="black"/>
<path d="M205.16 29.6562C205.011 29.6562 204.865 29.5774 204.786 29.4369C200.282 21.3732 200.348 13.5012 204.964 8.37598C205.659 7.60304 206.568 6.77262 208.044 6.45961C208.275 6.41064 208.501 6.55756 208.55 6.78752C208.6 7.01749 208.452 7.24319 208.221 7.29217C206.991 7.55407 206.234 8.2397 205.601 8.9445C201.242 13.7865 201.216 21.2923 205.535 29.0216C205.65 29.2282 205.575 29.4858 205.368 29.6008C205.301 29.637 205.231 29.6562 205.16 29.6562Z" fill="black"/>
<path d="M198.046 34.5979C197.922 34.5979 197.801 34.5447 197.717 34.4425C192.282 27.9013 184.116 29.758 180.245 32.4643C180.05 32.6006 179.785 32.5538 179.648 32.36C179.513 32.1684 179.558 31.9022 179.753 31.7659C183.872 28.885 192.573 26.9154 198.376 33.8974C198.526 34.0784 198.5 34.3466 198.318 34.4978C198.239 34.566 198.143 34.5979 198.046 34.5979Z" fill="black"/>
<path d="M191.933 25.025C191.805 25.025 191.677 24.9675 191.593 24.8568C190.289 23.1555 188.738 21.6458 186.988 20.3746C186.798 20.2362 186.755 19.9701 186.894 19.7806C187.033 19.591 187.301 19.5485 187.491 19.6869C189.307 21.007 190.915 22.5742 192.271 24.3415C192.415 24.5289 192.378 24.795 192.19 24.9377C192.115 24.9973 192.025 25.025 191.933 25.025Z" fill="black"/>
<path d="M182.825 7.07324L181.189 7.98032L179.444 7.13925L179.842 9.05988L178.462 10.363L180.299 10.6824L181.236 12.2879L181.942 10.6015L183.935 10.2544L182.513 8.9087L182.825 7.07324Z" fill="#A7E92F"/>
<path d="M177.442 30.7041L175.647 31.7006L173.733 30.7765L174.172 32.8824L172.657 34.3111L174.67 34.6625L175.699 36.4213L176.473 34.573L178.657 34.1919L177.1 32.7163L177.442 30.7041Z" fill="#A7E92F"/>
<path d="M195.939 22.9985C195.666 22.9985 195.351 22.9282 195.137 22.6536C194.831 22.2596 194.968 21.7401 195.225 21.4228C195.372 21.2418 195.552 21.1119 195.71 20.997C195.775 20.9501 195.841 20.9033 195.901 20.8522C196.205 20.603 196.418 20.2453 196.508 19.862L194.543 20.1772C194.408 20.1985 194.2 20.2325 193.989 20.1516C193.687 20.0388 193.477 19.7215 193.465 19.3659C193.456 19.104 193.544 18.8783 193.614 18.6952L194.185 17.1983C194.301 16.8981 194.434 16.4765 194.267 16.2848C194.19 16.1954 194.027 16.1507 193.85 16.1698C193.636 16.1933 193.409 16.2997 193.189 16.3998L191.546 17.16C191.36 17.2451 191.129 17.3516 190.862 17.3665C190.494 17.3857 190.158 17.2068 190.008 16.913C189.91 16.7192 189.989 16.4829 190.184 16.3849C190.378 16.287 190.616 16.3657 190.714 16.5595C190.72 16.5638 190.767 16.5851 190.823 16.5808C190.939 16.5744 191.08 16.5105 191.214 16.4467L192.859 15.6865C193.122 15.5651 193.422 15.4267 193.764 15.3884C194.205 15.3394 194.615 15.4821 194.866 15.7695C195.362 16.3381 195.056 17.1365 194.925 17.4772L194.354 18.9741C194.305 19.104 194.254 19.2382 194.256 19.3425C194.258 19.383 194.273 19.417 194.282 19.4255C194.29 19.4213 194.376 19.4085 194.416 19.4021L196.885 19.0061C196.996 18.9869 197.111 19.0188 197.199 19.0912C197.287 19.1636 197.338 19.268 197.342 19.3808C197.37 20.1644 197.009 20.9608 196.403 21.459C196.331 21.5186 196.252 21.5761 196.175 21.6315C196.044 21.7273 195.92 21.8167 195.839 21.9168C195.753 22.0212 195.74 22.1425 195.762 22.1723C195.768 22.1809 195.843 22.2596 196.26 22.1681L198.05 21.7763C198.264 21.7294 198.474 21.8636 198.521 22.0765C198.568 22.2894 198.433 22.4981 198.219 22.545L196.429 22.9368C196.333 22.958 196.147 22.9985 195.939 22.9985Z" fill="#A7E92F"/>
<path d="M195.832 10.5356C195.359 10.5356 194.917 10.3589 194.557 10.2163C194.354 10.1353 194.256 9.90751 194.337 9.70522C194.418 9.50294 194.647 9.40499 194.85 9.48591C195.199 9.62431 195.558 9.7691 195.898 9.74781C196.14 9.7329 196.427 9.58172 196.463 9.36241C196.502 9.14309 196.335 8.92377 196.055 8.58521C195.952 8.46171 195.845 8.33396 195.753 8.19768C195.096 7.23737 195.28 5.83842 196.166 5.07826C196.331 4.9356 196.581 4.95476 196.722 5.11872C196.865 5.28267 196.846 5.5318 196.681 5.67233C196.102 6.17059 195.975 7.12451 196.405 7.75479C196.478 7.86125 196.568 7.96985 196.664 8.08483C196.968 8.45107 197.344 8.90461 197.242 9.49655C197.13 10.129 196.508 10.4952 195.948 10.5314C195.911 10.5356 195.873 10.5356 195.832 10.5356Z" fill="#A7E92F"/>
<path d="M178.37 25.6727C178.248 25.6727 178.129 25.6173 178.052 25.513C177.205 24.3632 175.432 23.9799 174.18 24.6741C174.052 24.7464 173.921 24.8274 173.789 24.9104C173.194 25.2809 172.523 25.7025 171.77 25.4193C171.263 25.2298 170.987 24.7976 170.743 24.4164C170.615 24.2184 170.495 24.0289 170.354 23.8883C170.048 23.5796 169.56 23.454 169.141 23.5753C168.722 23.6967 168.378 24.0608 168.283 24.4867C168.236 24.6996 168.025 24.8316 167.813 24.7848C167.599 24.7379 167.466 24.5271 167.513 24.3163C167.672 23.6094 168.223 23.0217 168.923 22.8216C169.62 22.6214 170.403 22.8216 170.916 23.3369C171.117 23.5391 171.267 23.7712 171.41 23.9969C171.614 24.3142 171.789 24.5889 172.05 24.6868C172.435 24.8316 172.891 24.5484 173.372 24.2461C173.515 24.1566 173.658 24.0672 173.8 23.9884C175.408 23.0962 177.603 23.5711 178.691 25.0488C178.82 25.2234 178.783 25.4704 178.606 25.5982C178.533 25.6471 178.452 25.6727 178.37 25.6727Z" fill="#A7E92F"/>
<path d="M124.992 125.612C124.992 125.612 123.755 117.139 125.988 115.214C128.221 113.287 130.238 113.202 130.88 112.253C131.522 111.303 129.18 106.233 130.516 105.537C131.851 104.84 133.522 109.193 133.522 109.193L134.568 108.271C134.568 108.271 133.588 103.665 134.771 103.522C135.954 103.38 136.373 107.472 136.373 107.472C136.373 107.472 137.622 102.864 138.927 102.828C140.231 102.792 138.075 111.546 138.075 111.546C138.075 111.546 140.396 109.369 140.601 108.117C140.807 106.865 141.517 103.72 142.471 104.146C143.425 104.572 142.505 108.858 142.195 110.347C141.883 111.835 139.968 114.348 139.968 114.348C139.968 114.348 143.6 111.086 144.188 112.353C145.993 116.23 133.357 121.053 133.357 121.053L133.898 123.008C133.898 123.008 131.026 126.591 124.992 125.612Z" fill="white"/>
<path d="M133.357 121.479C133.141 121.479 132.954 121.317 132.931 121.098C132.907 120.863 133.076 120.655 133.312 120.629C133.339 120.627 136.165 120.297 139.895 117.62C142.943 115.436 144.201 113.296 144.021 112.761C144.004 112.712 143.888 112.706 143.824 112.708C143.144 112.723 141.925 113.545 140.849 114.269C139.576 115.127 138.479 115.86 137.675 115.828C137.453 115.817 137.074 115.787 136.595 115.749C132.06 115.395 129.532 115.391 129.077 115.736C128.997 115.93 128.786 116.041 128.576 115.987C128.347 115.93 128.208 115.698 128.266 115.47C128.469 114.674 129.821 114.365 136.661 114.899C137.134 114.935 137.506 114.965 137.718 114.976C138.231 114.999 139.369 114.237 140.37 113.564C141.658 112.698 142.875 111.878 143.805 111.856C144.537 111.831 144.768 112.293 144.834 112.489C145.242 113.7 143.334 116.205 140.398 118.31C136.464 121.132 133.526 121.462 133.401 121.475C133.387 121.477 133.372 121.479 133.357 121.479Z" fill="black"/>
<path d="M125.049 124.209C124.836 124.209 124.65 124.049 124.626 123.832C124.607 123.657 124.132 119.524 124.177 118.031C124.222 116.567 126.108 113.466 129.708 112.5C130.151 112.38 130.45 112.174 130.623 111.867C131.085 111.05 130.658 109.593 130.281 108.307C129.877 106.925 129.526 105.731 130.264 105.192C130.497 105.021 130.987 104.8 131.663 105.226C132.48 105.741 133.342 107.147 133.804 108.631C133.915 108.465 134.016 108.318 134.099 108.196C133.996 107.853 133.791 107.125 133.656 106.333C133.387 104.743 133.543 103.757 134.135 103.322C134.431 103.105 134.781 103.08 135.098 103.25C135.755 103.601 136.255 104.855 136.55 106.099C137.333 103.931 137.938 102.732 138.349 102.53C138.982 102.219 139.376 102.532 139.515 102.681C140.379 103.61 139.814 107.293 139.16 109.731C139.363 109.429 139.579 109.095 139.795 108.731C140.122 108.181 140.251 107.491 140.387 106.763C140.544 105.935 140.704 105.077 141.185 104.387C141.673 103.686 142.223 103.867 142.381 103.94C143.521 104.464 143.57 107.151 142.961 109.448C142.285 111.991 140.032 114.214 139.938 114.307C139.791 114.452 139.56 114.471 139.389 114.35C139.363 114.333 136.702 112.512 131.556 113.332C131.325 113.37 131.103 113.211 131.066 112.979C131.03 112.747 131.188 112.527 131.421 112.491C131.994 112.399 132.54 112.34 133.055 112.304C132.636 112.15 132.418 111.59 132.478 111.107C132.518 110.783 132.824 110.198 133.177 109.612C132.874 108.098 131.999 106.448 131.203 105.948C130.921 105.769 130.814 105.848 130.769 105.882C130.514 106.069 130.867 107.274 131.1 108.073C131.524 109.519 132.005 111.158 131.368 112.289C131.081 112.798 130.596 113.147 129.928 113.326C126.562 114.229 125.06 117.078 125.03 118.059C124.985 119.49 125.469 123.695 125.475 123.736C125.503 123.97 125.334 124.181 125.099 124.209C125.084 124.209 125.067 124.209 125.049 124.209ZM134.174 112.265C137.079 112.265 138.877 113.077 139.568 113.462C140.144 112.84 141.641 111.094 142.135 109.231C142.866 106.472 142.319 104.868 142.037 104.719C142.015 104.732 141.964 104.768 141.891 104.872C141.515 105.413 141.378 106.146 141.232 106.921C141.087 107.692 140.937 108.486 140.533 109.165C139.906 110.217 139.333 110.975 139.046 111.333C138.392 112.152 138.097 112.406 137.744 112.197C137.335 111.957 137.615 111.484 137.707 111.328C138.343 110.26 139.474 105.177 139.01 103.529C138.954 103.331 138.89 103.258 138.873 103.248C138.873 103.248 138.873 103.248 138.871 103.248C138.862 103.248 138.824 103.25 138.751 103.282C138.385 103.625 137.519 105.841 136.839 107.911C136.854 108.132 136.858 108.328 136.848 108.488C136.736 110.479 136.627 111.705 136.075 112.11C135.902 112.238 135.693 112.278 135.483 112.225C135.374 112.197 135.117 112.091 135.074 111.684C134.997 110.969 135.579 109.005 135.979 107.768C135.847 106.18 135.102 104.068 134.67 103.989C134.67 103.991 134.66 103.995 134.645 104.006C134.11 104.4 134.493 106.659 134.976 108.137C135.017 108.264 134.997 108.403 134.92 108.511C134.634 108.918 134.337 109.369 134.076 109.787C134.163 110.36 134.172 110.913 134.078 111.399C133.973 111.931 133.765 112.172 133.569 112.272C133.774 112.267 133.977 112.265 134.174 112.265Z" fill="black"/>
<path d="M172.738 90.4868C172.738 90.4868 170.159 89.8246 167.081 91.9752C164.003 94.1258 156.96 104.155 157.471 109.636C157.984 115.114 163.547 117.608 163.547 117.608C163.547 117.608 163.209 122.173 167.686 122.358C172.165 122.543 180.421 115.3 180.421 115.3C180.421 115.3 181.777 95.0818 172.738 90.4868Z" fill="white"/>
<path d="M206.797 86.0688C206.797 86.0688 204.162 82.6555 204.068 79.962C203.974 77.2684 206.261 74.807 206.261 74.807C206.261 74.807 207.987 71.6045 210.04 71.6045C212.093 71.6045 212.183 72.5563 212.183 72.5563C212.183 72.5563 213.655 72.2305 214.495 72.65C215.336 73.0673 215.546 73.672 215.546 73.672C215.546 73.672 216.641 74.0212 217.015 74.5536C217.389 75.0859 217.505 75.4308 217.505 75.4308C217.505 75.4308 218.974 75.4819 219.44 77.2684C219.907 79.057 217.295 82.3063 217.295 82.3063C217.295 82.3063 217.201 84.6273 216.198 85.8346C215.195 87.044 212.861 89.8313 206.797 86.0688Z" fill="white"/>
<path d="M155.12 177.569C155.509 176.319 156.754 175.54 158.052 175.734C160.572 176.111 165.019 176.59 170.082 176.292C180.35 175.691 189.629 171.043 193.825 168.622C195.145 167.86 196.837 168.368 197.519 169.725C198.385 171.447 199.489 173.758 200.233 175.74C201.699 179.635 202.409 184.34 202.732 187.309C202.903 188.869 201.671 190.23 200.097 190.23H155.67C154.089 190.23 152.857 188.863 153.035 187.298C153.291 185.043 153.86 181.623 155.12 177.569Z" fill="#A6E82F"/>
<path d="M152.744 111.087C150.851 107.803 154.254 102.18 159.796 95.8325C165.338 89.485 170.443 87.2237 177.065 88.1755C183.687 89.1273 188.414 93.0111 190.626 98.3259C192.837 103.641 194.75 112.831 191.599 114.873C188.448 116.915 177.418 119.05 174.821 113.983C172.225 108.915 177.035 102.936 177.035 102.936C177.035 102.936 171.679 101.186 170.358 96.8503C169.036 92.515 172.191 90.671 172.191 90.671C172.191 90.671 168.259 89.402 163.663 95.9751C159.066 102.548 156.821 106.728 157.961 110.612C159.101 114.496 160.029 115.333 160.029 115.333C160.029 115.333 154.857 114.756 152.744 111.087Z" fill="#A7E92F"/>
<path d="M182.689 117.71C181.333 117.71 180.165 117.457 179.436 117.11C178.785 116.801 178.308 116.369 178.02 115.836C177.438 116.122 176.811 116.309 176.161 116.337C176.14 116.337 176.118 116.337 176.097 116.335C175.986 116.322 173.365 116.007 172.535 113.434C171.182 109.244 175.986 101.283 176.191 100.946C176.313 100.746 176.576 100.682 176.779 100.803C176.98 100.925 177.046 101.187 176.922 101.389C176.873 101.468 172.114 109.353 173.35 113.175C173.975 115.104 175.885 115.447 176.163 115.485C176.698 115.455 177.232 115.285 177.739 115.023C177.671 114.637 177.677 114.22 177.759 113.773C178.116 111.833 179.85 109.821 180.886 109.736C181.273 109.702 181.585 109.904 181.718 110.275C181.987 111.016 181.701 112.093 180.933 113.232C180.43 113.977 179.673 114.797 178.762 115.408C178.965 115.796 179.314 116.109 179.806 116.341C181.934 117.35 188.184 117.472 191.022 111.784C192.19 109.442 188.812 99.1191 187.518 95.8251C186.554 93.3743 184.297 87.6337 173.911 87.5421C173.862 87.5421 173.812 87.5421 173.763 87.5421C163.663 87.5421 158.752 96.9111 158.703 97.0069C158.596 97.2156 158.338 97.2986 158.128 97.1943C157.918 97.0878 157.833 96.8323 157.94 96.6215C157.991 96.5214 163.131 86.6904 173.761 86.6904C173.812 86.6904 173.864 86.6904 173.915 86.6904C184.879 86.7884 187.285 92.9037 188.312 95.5164C188.363 95.6484 193.402 108.922 191.785 112.163C189.647 116.454 185.702 117.71 182.689 117.71ZM180.92 110.585C180.503 110.656 179.125 111.944 178.67 113.611C178.582 113.935 178.539 114.237 178.544 114.514C179.215 114.014 179.799 113.381 180.218 112.757C180.798 111.899 181.07 111.052 180.92 110.585Z" fill="black"/>
<path d="M134.243 123.338C134.243 123.338 132.234 125.265 130.102 125.832C127.969 126.398 124.519 125.885 124.519 125.885C124.519 125.885 119.876 137.56 121.014 150.446C122.151 163.333 131.141 165.809 135.885 165.596C142.903 165.281 148.464 161.821 148.464 161.821C148.464 161.821 149.602 168.68 152.637 171.891C155.672 175.099 160.508 176.249 169.894 175.549C179.279 174.848 194.51 168.907 195.47 165.631C198.024 156.913 193.261 135.714 193.261 135.714C193.261 135.714 202.646 133.035 208.909 122.538C215.172 112.04 215.582 90.3492 214.639 89.1376C213.694 87.9261 211.228 89.7977 208.909 88.6181C206.59 87.4384 206.834 84.8407 205.121 85.3688C201.329 86.5399 196.317 103.476 192.651 107.944C188.985 112.411 175.82 117.738 175.82 117.738C175.82 117.738 171.62 122.459 167.427 121.939C163.235 121.42 163.466 118.39 163.466 118.39C163.466 118.39 154.248 121.846 151.403 124.725C148.93 127.229 139.596 138.695 139.596 138.695C139.596 138.695 137.464 125.067 134.243 123.338Z" fill="#016A2B"/>
<path d="M140.02 137.515C139.951 137.515 139.881 137.498 139.814 137.464C139.607 137.351 139.53 137.093 139.643 136.887C139.682 136.816 143.577 129.785 151.317 123.285C155.826 119.499 163.075 118.032 163.383 117.97C163.522 117.942 163.669 117.987 163.77 118.089C163.87 118.191 163.913 118.336 163.885 118.477C163.697 119.363 163.588 121.513 166.591 122.348C170.007 123.297 176.449 118.113 176.513 118.059C176.697 117.91 176.967 117.938 177.114 118.121C177.264 118.304 177.236 118.573 177.052 118.719C176.774 118.945 170.197 124.232 166.36 123.168C163.684 122.424 162.852 120.598 162.959 118.939C161.133 119.373 155.484 120.902 151.869 123.936C144.259 130.328 140.432 137.225 140.396 137.293C140.319 137.434 140.171 137.515 140.02 137.515Z" fill="black"/>
<path d="M163.697 85.8936L171.804 88.7128C172.156 88.8363 172.238 89.2963 171.945 89.5283C171.136 90.1671 169.453 91.0018 166.777 90.0713C164.116 89.1451 163.316 87.448 163.079 86.4451C162.991 86.0831 163.344 85.7701 163.697 85.8936Z" fill="black"/>
<path d="M173.906 89.6934L182.012 92.5126C182.365 92.6361 182.447 93.0961 182.154 93.3281C181.345 93.9669 179.662 94.8016 176.986 93.8711C174.325 92.9449 173.525 91.2478 173.288 90.2449C173.2 89.8829 173.553 89.5699 173.906 89.6934Z" fill="black"/>
<path d="M167.145 117.463C163.19 117.463 160.369 115.862 158.962 112.811C156.662 107.822 159.548 103.069 159.672 102.869C159.796 102.669 160.059 102.607 160.26 102.731C160.461 102.854 160.523 103.116 160.399 103.316C160.371 103.361 157.633 107.888 159.738 112.455C162.944 119.407 173.22 115.515 173.322 115.474C173.543 115.389 173.791 115.498 173.876 115.717C173.962 115.936 173.853 116.184 173.632 116.269C173.521 116.311 170.85 117.335 167.708 117.453C167.519 117.459 167.331 117.463 167.145 117.463Z" fill="black"/>
<path d="M164.413 106.337C164.334 106.337 164.253 106.316 164.182 106.269C163.658 105.931 162.788 104.889 163.252 103.38C163.496 102.59 164.189 102.17 164.86 101.764C165.793 101.201 166.597 100.714 166.42 99.3063C166.186 97.4645 163.983 97.5944 163.891 97.6007C163.652 97.6156 163.451 97.441 163.436 97.2068C163.419 96.9726 163.596 96.7703 163.829 96.7511C164.901 96.6724 167.001 97.0833 167.269 99.1998C167.517 101.157 166.289 101.898 165.305 102.492C164.723 102.843 164.219 103.148 164.071 103.629C163.684 104.889 164.612 105.528 164.653 105.556C164.848 105.686 164.903 105.95 164.773 106.146C164.689 106.269 164.552 106.337 164.413 106.337Z" fill="black"/>
<path d="M175.848 102.84C175.808 102.84 175.767 102.833 175.724 102.82C175.54 102.765 171.194 101.413 169.943 96.9627C168.67 92.4358 170.888 90.956 170.982 90.8942C171.181 90.7665 171.446 90.8239 171.573 91.022C171.699 91.2179 171.643 91.4798 171.448 91.6075C171.367 91.6629 169.68 92.8638 170.766 96.7327C171.889 100.723 175.932 101.992 175.972 102.005C176.197 102.073 176.325 102.312 176.257 102.535C176.201 102.72 176.032 102.84 175.848 102.84Z" fill="black"/>
<path d="M164.662 96.3063C164.597 96.3063 164.533 96.2914 164.473 96.2616C164.262 96.1572 164.174 95.9038 164.279 95.693C164.36 95.527 166.349 91.5984 171.147 90.8319C171.384 90.7935 171.6 90.9532 171.636 91.1853C171.673 91.4174 171.515 91.6367 171.281 91.6729C166.931 92.3692 165.064 96.0316 165.044 96.0699C164.97 96.219 164.818 96.3063 164.662 96.3063Z" fill="black"/>
<path d="M161.736 117.367C161.712 117.367 161.689 117.365 161.663 117.361C161.308 117.301 152.956 115.844 151.279 111.284C149.604 106.727 155.375 99.6703 155.621 99.3722C155.771 99.1912 156.04 99.1657 156.222 99.3148C156.404 99.4638 156.432 99.7321 156.28 99.9131C156.222 99.9833 150.573 106.891 152.079 110.99C153.585 115.086 161.721 116.505 161.802 116.519C162.035 116.558 162.192 116.779 162.153 117.011C162.123 117.22 161.941 117.367 161.736 117.367Z" fill="black"/>
<path d="M165.13 111.354C165.004 111.354 164.876 111.347 164.745 111.335C163.182 111.183 162.516 109.621 162.489 109.555C162.399 109.337 162.501 109.088 162.722 108.999C162.94 108.907 163.19 109.012 163.28 109.231C163.284 109.242 163.78 110.387 164.829 110.487C166.167 110.617 167.066 109.878 167.575 109.252C166.871 109.376 165.919 109.476 165.068 109.34C163.496 109.086 162.489 108.311 162.448 108.277C162.262 108.132 162.23 107.864 162.375 107.679C162.521 107.493 162.788 107.461 162.974 107.606C162.987 107.615 163.864 108.281 165.205 108.498C166.576 108.72 168.349 108.209 168.366 108.205C168.525 108.16 168.698 108.207 168.807 108.332C168.916 108.456 168.944 108.633 168.88 108.784C168.475 109.706 167.196 111.354 165.13 111.354Z" fill="black"/>
<path d="M193.259 137.515C193.049 137.515 192.868 137.362 192.835 137.151C192.801 136.919 192.964 136.702 193.197 136.668C193.293 136.653 202.965 135.154 209.104 125.444C214.297 117.229 215.861 107.788 216.329 102.891C216.859 97.3588 216.543 90.5642 215.097 88.7692C214.721 88.3029 213.747 88.3263 212.62 88.3583C210.721 88.4073 208.12 88.4775 206.554 85.9884C206.443 85.8138 206.375 85.818 206.353 85.8202C206.112 85.8372 205.356 86.2481 203.573 89.6742C202.341 92.042 200.976 95.1401 199.654 98.1381C197.952 102.003 196.343 105.652 195.195 107.337C188.739 116.793 176.969 118.79 176.852 118.809C176.616 118.848 176.398 118.69 176.362 118.458C176.325 118.226 176.481 118.007 176.715 117.97C176.83 117.951 188.243 116.007 194.487 106.86C195.592 105.241 197.184 101.626 198.871 97.7975C202.351 89.902 204.586 85.0983 206.289 84.9727C206.565 84.9514 206.961 85.0345 207.277 85.5391C208.584 87.6152 210.717 87.5598 212.597 87.5087C213.953 87.4725 215.121 87.4427 215.762 88.239C217.227 90.0575 217.822 96.2537 217.178 102.974C216.701 107.946 215.114 117.536 209.825 125.9C203.468 135.954 193.417 137.498 193.317 137.513C193.3 137.513 193.278 137.515 193.259 137.515Z" fill="black"/>
<path d="M155.3 173.155C155.197 173.155 155.094 173.119 155.013 173.046C148.639 167.323 146.95 148.283 147.277 144.252C147.942 136.086 150.926 131.827 151.054 131.651C151.191 131.459 151.458 131.414 151.651 131.551C151.843 131.687 151.888 131.953 151.751 132.145C151.745 132.155 151.001 133.211 150.186 135.232C149.435 137.097 148.468 140.187 148.13 144.322C147.809 148.268 149.426 166.882 155.586 172.414C155.762 172.571 155.775 172.84 155.618 173.016C155.533 173.106 155.417 173.155 155.3 173.155Z" fill="black"/>
<path d="M197.652 163.649C197.605 163.649 197.556 163.641 197.509 163.624C197.287 163.545 197.171 163.3 197.25 163.079C199.86 155.816 194.356 137.148 194.299 136.961C194.232 136.735 194.361 136.499 194.587 136.43C194.814 136.364 195.052 136.492 195.12 136.718C195.135 136.765 196.547 141.53 197.61 147.147C199.047 154.736 199.197 160.191 198.057 163.366C197.995 163.541 197.83 163.649 197.652 163.649Z" fill="black"/>
<path d="M165.213 100.874C165.042 100.874 164.88 100.77 164.813 100.602C164.687 100.276 164.501 100.065 164.244 99.9546C163.727 99.731 163.087 99.9822 163.079 99.9844C162.86 100.072 162.61 99.9673 162.522 99.748C162.435 99.5308 162.537 99.2838 162.756 99.1944C162.794 99.1774 163.727 98.8069 164.578 99.1688C165.051 99.3711 165.399 99.7501 165.611 100.293C165.697 100.512 165.588 100.759 165.367 100.845C165.318 100.864 165.267 100.874 165.213 100.874Z" fill="black"/>
<path d="M171.964 103.329C171.793 103.329 171.63 103.224 171.564 103.056C171.438 102.728 171.25 102.517 170.991 102.407C170.475 102.187 169.838 102.434 169.832 102.436C169.613 102.526 169.363 102.421 169.273 102.204C169.184 101.987 169.288 101.738 169.507 101.649C169.545 101.631 170.48 101.261 171.327 101.623C171.799 101.825 172.148 102.204 172.36 102.747C172.445 102.967 172.336 103.214 172.116 103.299C172.069 103.32 172.015 103.329 171.964 103.329Z" fill="black"/>
<path d="M136.854 164.239C133.851 164.239 131.302 163.417 129.227 161.769C124.688 158.171 122.498 150.827 122.716 139.942C122.879 131.899 124.371 124.8 124.386 124.728C124.41 124.617 124.478 124.519 124.575 124.458C124.671 124.396 124.789 124.374 124.9 124.4C124.955 124.413 130.459 125.599 132.773 122.924C132.927 122.746 133.197 122.726 133.376 122.88C133.556 123.033 133.575 123.301 133.421 123.48C131.156 126.097 126.575 125.558 125.142 125.314C124.466 128.799 120.1 153.442 129.759 161.101C133.89 164.375 140.122 164.126 148.282 160.357C148.496 160.26 148.751 160.351 148.851 160.564C148.949 160.777 148.858 161.03 148.644 161.13C144.161 163.204 140.223 164.239 136.854 164.239Z" fill="black"/>
<path d="M141.804 149.313C141.592 149.313 141.408 149.158 141.38 148.943C141.357 148.757 138.893 130.271 136.519 125.902C135.088 123.268 133.929 122.533 133.918 122.524C133.719 122.401 133.655 122.139 133.777 121.941C133.899 121.741 134.157 121.675 134.361 121.796C134.414 121.828 135.71 122.62 137.274 125.497C139.723 130.005 142.131 148.065 142.232 148.832C142.262 149.064 142.097 149.279 141.864 149.309C141.842 149.311 141.823 149.313 141.804 149.313Z" fill="black"/>
<path d="M214.074 87.3804C213.912 87.3804 213.753 87.2867 213.683 87.1271C213.587 86.912 213.683 86.6607 213.899 86.5649C213.914 86.5585 215.345 85.907 216.072 84.706C216.814 83.4796 216.865 81.8336 216.868 81.8166C216.874 81.5845 217.064 81.4014 217.295 81.4014C217.3 81.4014 217.304 81.4014 217.306 81.4014C217.541 81.4078 217.727 81.6036 217.723 81.8379C217.721 81.9145 217.663 83.7287 216.806 85.1447C215.937 86.5777 214.318 87.3123 214.25 87.3421C214.192 87.3677 214.132 87.3804 214.074 87.3804Z" fill="black"/>
<path d="M206.78 85.7919C206.635 85.7919 206.492 85.7174 206.413 85.5832C206.357 85.4917 205.046 83.29 204.329 81.1585C203.578 78.9249 204.714 76.3463 206.248 75.1433C207.227 74.3746 209.172 74.5747 209.961 74.6961C211.11 74.8729 212.682 75.3221 213.325 76.0056C213.687 76.3889 213.807 76.8446 213.663 77.2917C213.349 78.2648 211.942 78.8738 211.071 79.0441C209.798 79.2954 208.066 79.5296 208.049 79.5318C207.818 79.5637 207.6 79.3997 207.568 79.1677C207.535 78.9356 207.7 78.7205 207.933 78.6886C207.95 78.6864 209.657 78.4543 210.904 78.2095C211.794 78.0327 212.703 77.4834 212.848 77.032C212.881 76.9319 212.893 76.7914 212.703 76.5891C211.912 75.748 207.914 74.924 206.78 75.814C205.508 76.8126 204.522 79.0356 205.144 80.8902C205.831 82.9322 207.138 85.1254 207.15 85.1488C207.272 85.3511 207.204 85.613 207.003 85.7323C206.93 85.7727 206.855 85.7919 206.78 85.7919Z" fill="black"/>
<path d="M212.213 75.8574C212.194 75.8574 212.173 75.8553 212.153 75.8531C211.92 75.8191 211.758 75.604 211.79 75.3719C211.792 75.3527 212.059 73.3107 210.735 72.6145C210.481 72.4803 209.794 72.5591 209.02 72.9701C207.927 73.5492 207.215 74.4584 207.114 75.4039C207.089 75.6381 206.877 75.8063 206.644 75.7829C206.408 75.7573 206.239 75.5486 206.263 75.3144C206.393 74.0879 207.275 72.9317 208.618 72.2206C209.388 71.8139 210.451 71.5051 211.133 71.865C212.99 72.8423 212.65 75.3868 212.635 75.4954C212.607 75.7041 212.423 75.8574 212.213 75.8574Z" fill="black"/>
<path d="M209.512 81.2116C208.982 81.2116 208.573 81.0604 208.293 80.7581C207.829 80.2577 207.94 79.5763 207.955 79.4996C207.998 79.2676 208.222 79.1164 208.453 79.159C208.686 79.2015 208.838 79.4251 208.795 79.6551C208.795 79.6551 208.744 79.9915 208.924 80.181C209.103 80.3705 209.478 80.3748 209.758 80.345C211.155 80.1959 211.886 78.1795 211.893 78.1603C211.972 77.9389 212.216 77.8218 212.438 77.9005C212.66 77.9793 212.778 78.2199 212.699 78.4435C212.663 78.5478 211.784 80.9859 209.848 81.1924C209.732 81.2052 209.619 81.2116 209.512 81.2116Z" fill="black"/>
<path d="M211.609 81.3527C211.042 81.3527 210.533 81.2313 210.197 81.095C209.979 81.0056 209.874 80.7586 209.962 80.5393C210.049 80.32 210.3 80.2156 210.52 80.3051C210.593 80.3349 212.372 81.0205 213.476 79.6599C214.751 78.0863 215.007 74.6156 214.363 73.8533C213.818 73.206 212.411 73.3785 211.914 73.4977C211.683 73.5531 211.452 73.4125 211.397 73.1847C211.341 72.9569 211.48 72.7269 211.709 72.6694C211.803 72.646 214.019 72.1179 215.018 73.3039C216.051 74.5283 215.551 78.4568 214.141 80.1943C213.42 81.0844 212.449 81.3527 211.609 81.3527Z" fill="black"/>
<path d="M213.954 81.8758C212.968 81.8758 212.072 81.5075 212.016 81.484C211.798 81.3925 211.696 81.1433 211.788 80.9262C211.88 80.709 212.13 80.6068 212.348 80.6983C212.799 80.8857 214.149 81.269 214.945 80.792C215.419 80.5067 215.969 79.672 216.309 78.7159C216.688 77.6555 216.763 76.6015 216.512 75.901C216.029 74.5446 215.191 74.6192 215.096 74.6319C214.863 74.6639 214.647 74.5063 214.611 74.2764C214.575 74.0464 214.726 73.8313 214.957 73.7909C215.516 73.6951 216.724 73.9527 217.319 75.6157C217.637 76.5079 217.563 77.7428 217.116 79.0013C216.701 80.166 216.038 81.1306 215.387 81.5224C214.947 81.7864 214.44 81.8758 213.954 81.8758Z" fill="black"/>
<path d="M216.132 82.4728C215.077 82.4728 214.07 81.8702 214.017 81.8383C213.816 81.7148 213.751 81.4529 213.873 81.2527C213.995 81.0526 214.258 80.9887 214.461 81.1101C214.825 81.3294 215.927 81.8298 216.66 81.5274C217.552 81.159 218.915 78.9637 218.637 77.535C218.397 76.3043 217.319 76.2212 217.197 76.2148C216.962 76.2042 216.778 76.0061 216.786 75.7741C216.795 75.5441 216.983 75.3652 217.212 75.3652C217.216 75.3652 217.221 75.3652 217.225 75.3652C217.871 75.3844 219.173 75.8315 219.475 77.3732C219.826 79.1703 218.324 81.7616 216.988 82.3131C216.712 82.426 216.421 82.4728 216.132 82.4728Z" fill="black"/>
<path d="M153.837 190.658C153.824 190.658 153.809 190.658 153.796 190.656C153.561 190.633 153.388 190.426 153.411 190.192C154.286 181.055 156.665 173.835 156.688 173.762C156.763 173.539 157.005 173.417 157.229 173.492C157.454 173.566 157.576 173.807 157.501 174.03C157.477 174.101 155.129 181.236 154.265 190.273C154.241 190.494 154.055 190.658 153.837 190.658Z" fill="black"/>
<path d="M205.688 190.894C205.47 190.894 205.283 190.73 205.262 190.511C203.684 174.509 196.268 165.089 196.193 164.995C196.046 164.812 196.076 164.544 196.262 164.397C196.446 164.25 196.715 164.28 196.863 164.463C196.94 164.559 204.507 174.158 206.113 190.426C206.137 190.66 205.964 190.868 205.731 190.892C205.716 190.894 205.701 190.894 205.688 190.894Z" fill="black"/>
<path d="M174.918 190.659C174.736 190.659 174.567 190.542 174.509 190.361L172.327 183.47C172.257 183.247 172.381 183.006 172.608 182.936C172.832 182.865 173.074 182.989 173.144 183.215L175.326 190.105C175.397 190.329 175.273 190.569 175.046 190.64C175.003 190.652 174.96 190.659 174.918 190.659Z" fill="black"/>
<path d="M155.833 118.804C156.239 118.581 156.748 118.704 157.003 119.09C158.214 120.917 161.813 126.018 166.592 129.787C172.405 134.372 183.754 140.402 196.897 141.286C197.323 141.313 197.674 141.635 197.727 142.054C197.911 143.491 197.973 144.716 197.993 145.47C198.005 145.936 197.655 146.33 197.188 146.375C193.989 146.685 181.033 147.65 169 138.896C157.501 130.533 153.837 123.563 152.892 121.325C152.714 120.906 152.881 120.423 153.281 120.203L155.833 118.804Z" fill="white"/>
<path d="M178.389 148.862L164.221 141.482C162.202 140.43 161.423 137.949 162.478 135.939L165.235 130.693C166.292 128.683 168.783 127.908 170.802 128.957L184.97 136.337C186.99 137.389 187.768 139.87 186.714 141.88L183.957 147.127C182.9 149.137 180.406 149.914 178.389 148.862Z" fill="white"/>
<path d="M182.247 141.71C182.213 141.71 182.177 141.705 182.143 141.697C174.65 139.825 167.241 134.287 167.168 134.231C166.98 134.089 166.944 133.823 167.085 133.635C167.226 133.448 167.496 133.41 167.684 133.552C167.757 133.608 175.029 139.044 182.35 140.871C182.579 140.928 182.718 141.158 182.66 141.388C182.613 141.582 182.44 141.71 182.247 141.71Z" fill="black"/>
<path d="M163.568 134.288C163.5 134.288 163.432 134.271 163.367 134.237C163.16 134.126 163.081 133.869 163.192 133.66L165.128 130.051C165.239 129.844 165.498 129.766 165.707 129.876C165.915 129.987 165.994 130.245 165.883 130.453L163.947 134.063C163.87 134.205 163.72 134.288 163.568 134.288Z" fill="black"/>
<path d="M184.877 145.803C184.81 145.803 184.742 145.788 184.678 145.754C184.468 145.645 184.387 145.387 184.498 145.179L186.335 141.685C186.444 141.476 186.703 141.397 186.913 141.506C187.123 141.614 187.204 141.872 187.093 142.081L185.255 145.575C185.178 145.72 185.031 145.803 184.877 145.803Z" fill="black"/>
<path d="M121.191 142.548C121.191 142.548 123.43 138.798 121.98 128.801C121.548 125.82 117.121 111.488 117.3 110.779C118.12 107.536 113.388 104.088 113.117 102.881C112.845 101.674 117.208 97.4832 116.139 96.2567C115.069 95.0324 111.667 98.7651 111.667 98.7651L110.976 97.4257C110.976 97.4257 113.784 93.1693 112.648 92.5624C111.513 91.9556 109.474 95.9139 109.474 95.9139C109.474 95.9139 110.037 90.7823 108.736 90.2351C107.436 89.6879 106.146 99.3527 106.146 99.3527C106.146 99.3527 104.668 96.2504 104.957 94.9089C105.246 93.5674 105.772 90.1201 104.645 90.1755C103.515 90.2308 102.747 94.9089 102.471 96.5314C102.198 98.1518 103.132 101.435 103.132 101.435C103.132 101.435 100.944 96.9509 99.6674 97.7707C98.3926 98.5883 100.531 104.512 102.557 106.888C103.977 108.553 105.25 110.783 106.94 112.286C107.47 112.759 111.423 131.382 111.423 131.382C111.423 131.382 119.345 142.154 121.191 142.548Z" fill="white"/>
<path d="M26.1152 92.1072C26.1152 92.1072 26.3484 87.3355 29.2273 85.9493C32.1041 84.5653 34.2366 85.0422 35.1777 84.231C36.1167 83.4197 35.1093 77.4683 36.7027 77.117C38.2941 76.7657 38.8031 81.7801 38.8031 81.7801L40.157 81.1116C40.157 81.1116 40.4394 76.0268 41.7142 76.2099C42.9889 76.393 42.266 80.7836 42.266 80.7836C42.266 80.7836 44.8754 76.3228 46.2486 76.6528C47.6218 76.9828 42.8884 85.5171 42.8884 85.5171C42.8884 85.5171 45.9299 83.8967 46.4988 82.6468C47.0678 81.3969 48.7019 78.3137 49.5767 79.0248C50.4515 79.736 48.2763 83.9542 47.5298 85.4213C46.7833 86.8883 44.0712 88.9729 44.0712 88.9729C44.0712 88.9729 48.5073 86.6626 49.0441 88.0743C49.581 89.4861 44.3257 92.9845 41.2778 93.6978C38.2299 94.409 35.4878 96.336 26.1152 92.1072Z" fill="white"/>
<path d="M64.1533 86.3283L63.9801 80.807C63.9801 80.807 66.6836 76.855 73.712 76.0203C80.7404 75.1856 84.1455 76.4377 84.1455 76.4377C84.1455 76.4377 87.3132 78.2028 87.2212 79.6891C87.1292 81.1753 84.9818 79.968 84.9818 79.968C84.9818 79.968 86.1582 86.0664 85.57 91.2129C84.9839 96.3594 82.629 98.659 82.629 98.659C82.629 98.659 84.2353 99.7045 84.0963 103.094C83.9573 106.484 81.5275 115.317 80.4559 115.268C77.9705 115.15 65.8345 106.867 65.2826 105.618C64.0506 102.824 65.7211 103.752 66.4804 102.398C67.9584 99.7599 67.2012 91.5621 67.2012 91.5621C67.2012 91.5621 62.3631 90.9105 64.1533 86.3283Z" fill="white"/>
<path d="M90.7227 63.5299C90.7227 63.5299 91.9803 62.5014 92.6006 61.2622C93.0754 60.3104 93.2337 58.1172 93.2337 58.1172C93.2337 58.1172 96.2966 61.1408 96.7757 62.2161C95.4881 66.3597 92.1536 67.8012 92.1536 67.8012L90.7227 63.5299Z" fill="#97CAFA"/>
<path d="M47.2746 168.476C76.5988 168.321 82.9449 165.346 91.5774 163.796C93.7292 163.411 94.7794 164.456 95.3376 166.76L100.071 186.322L100.287 187.214C100.633 188.649 99.763 190.095 98.4219 190.312L98.3727 190.321C91.139 191.483 56.7756 191.767 45.7197 191.828C45.3988 191.83 45.0972 191.833 44.8149 191.833C43.2685 191.841 42.0001 190.497 41.9531 188.807L41.9424 188.394L43.3733 172.422C43.3049 169.988 45.0331 168.487 47.2746 168.476Z" fill="#C2C2C2"/>
<path d="M77.2319 191.828C77.2255 191.828 77.2191 191.828 77.2127 191.828C76.9774 191.817 76.7935 191.619 76.8042 191.383L77.5164 175.215C77.5271 174.981 77.7346 174.806 77.9634 174.809C78.1987 174.819 78.3827 175.017 78.372 175.254L77.6597 191.421C77.649 191.649 77.4587 191.828 77.2319 191.828Z" fill="black"/>
<path d="M48.1491 181.459C47.9823 181.459 47.824 181.361 47.7534 181.197C47.6615 180.98 47.7641 180.731 47.9823 180.639C50.9789 179.389 53.0664 176.395 54.2899 174.106C55.6331 171.592 56.2598 169.347 56.2662 169.324C56.3283 169.098 56.5635 168.964 56.7924 169.026C57.0213 169.088 57.1539 169.322 57.0918 169.55C57.0662 169.643 56.4395 171.894 55.0535 174.49C53.2033 177.958 50.8719 180.356 48.3117 181.425C48.2604 181.448 48.2048 181.459 48.1491 181.459Z" fill="black"/>
<path d="M24.8745 92.7665C23.3965 91.8168 21.4073 92.4194 20.6352 93.993C15.6559 104.152 3.18613 131.935 12.8732 137.341C24.7761 143.985 45.7907 130.625 45.7907 130.625C45.7907 130.625 39.5045 156.735 41.3974 161.632C42.7171 165.046 47.4119 166.208 64.9209 164.526C92.9489 161.832 101.618 159.654 99.8019 144.973C97.986 130.291 100.523 137.522 107.286 140.216C114.049 142.909 120.857 145.071 120.543 134.92C120.301 127.148 117.172 121.333 115.719 119.034C115.3 118.371 114.543 118.011 113.762 118.101C112.154 118.286 109.371 118.582 108.009 118.582C107.11 118.582 107.303 120.205 107.585 121.45C107.667 121.812 107.22 122.051 106.965 121.78C103.363 117.935 91.1265 105.076 87.4498 103.898C83.1207 102.512 84.0832 113.644 82.4747 115.71C81.3582 117.145 71.4188 111.46 65.4556 107.855C63.5392 106.696 63.2226 104.126 64.6963 102.446C65.1968 101.876 65.6182 101.22 65.8513 100.485C66.463 98.5582 66.5443 96.6759 66.5272 95.607C66.5186 95.1023 66.093 94.7084 65.5882 94.7255C62.4483 94.8362 52.0576 95.5197 51.0181 99.7612C50.3871 102.336 52.28 105.221 52.28 105.221L32.352 112.927C32.352 112.927 35.2438 103.104 35.9689 97.8534C36.1571 96.4885 35.1582 95.2386 33.7765 95.1492C31.3467 94.9874 27.5117 94.4614 24.8745 92.7665Z" fill="#A6E82F"/>
<path d="M110.623 135.345C110.426 135.345 110.248 135.209 110.206 135.008C110.171 134.849 106.728 119.098 106.15 116.752C105.543 114.284 106.12 113.46 106.242 113.319L106.888 113.877C106.888 113.877 106.895 113.873 106.903 113.86C106.899 113.867 106.477 114.501 106.982 116.549C107.562 118.907 111.008 134.67 111.042 134.83C111.093 135.059 110.946 135.285 110.715 135.336C110.682 135.341 110.653 135.345 110.623 135.345Z" fill="black"/>
<path d="M115.373 145.895C108.606 145.895 100.457 139.418 100.074 139.111C99.8899 138.964 99.8621 138.696 100.01 138.513C100.157 138.33 100.427 138.302 100.611 138.449C100.711 138.53 110.803 146.551 117.439 144.792C119.196 144.326 120.421 143.301 121.187 141.658C124.513 134.512 117.559 118.495 116.212 115.527C115.063 116.362 111.895 118.467 109.547 118.18C108.758 118.082 108.127 117.731 107.667 117.134C107.524 116.947 107.56 116.681 107.746 116.538C107.934 116.396 108.202 116.432 108.345 116.617C108.664 117.03 109.089 117.267 109.65 117.335C112.15 117.641 116.073 114.564 116.111 114.535C116.214 114.454 116.347 114.424 116.475 114.454C116.601 114.484 116.708 114.569 116.764 114.686C116.787 114.733 119.041 119.489 120.802 125.179C123.185 132.883 123.576 138.547 121.961 142.015C121.095 143.876 119.647 145.088 117.658 145.616C116.926 145.808 116.158 145.895 115.373 145.895Z" fill="black"/>
<path d="M79.9617 91.9861C79.7542 91.9861 79.5724 91.8349 79.5403 91.6241C79.5039 91.392 79.6643 91.1748 79.8996 91.1386C80.1755 91.096 80.9541 90.8788 81.2343 90.4019C81.3776 90.1591 81.3819 89.8674 81.2471 89.5054C81.1937 89.3628 81.106 89.1711 81.0033 88.9497C80.7787 88.4642 80.4686 87.7999 80.2504 87.012C79.7606 85.2468 79.7606 84.031 80.2504 83.1793C80.6012 82.5682 81.2001 82.1594 82.0792 81.9294C84.0191 81.4184 85.2468 82.7172 85.2982 82.7747C85.4586 82.9472 85.4458 83.2176 85.2725 83.3773C85.0993 83.537 84.8298 83.5242 84.6693 83.3539C84.6266 83.3092 83.724 82.3787 82.2973 82.7556C81.6407 82.928 81.2279 83.1985 80.9905 83.6073C80.6269 84.2376 80.6547 85.2788 81.0739 86.7885C81.2749 87.5082 81.5551 88.1107 81.7797 88.5941C81.8909 88.8326 81.985 89.037 82.0513 89.2137C82.2759 89.8227 82.2481 90.3699 81.9701 90.8405C81.4225 91.7646 80.0836 91.9754 80.028 91.9861C80.0044 91.9839 79.983 91.9861 79.9617 91.9861Z" fill="black"/>
<path d="M78.1564 96.2444C78.0003 96.2444 77.8442 96.238 77.6837 96.2231C76.1566 96.0868 74.8861 94.8817 74.4668 93.8149C74.2465 93.2549 74.2786 92.7758 74.5588 92.467C74.7492 92.2562 75.1278 92.0476 75.8529 92.2456C77.8955 92.8077 81.0397 92.9036 81.0717 92.9036C81.2322 92.9078 81.3776 93.0015 81.446 93.1463C81.6877 93.6509 81.5936 94.294 81.1937 94.8646C80.5777 95.744 79.4633 96.2444 78.1564 96.2444ZM75.3138 93.0164C75.239 93.0164 75.2005 93.0292 75.1919 93.0377C75.1684 93.0675 75.1492 93.257 75.2967 93.5849C75.6539 94.3791 76.6378 95.2756 77.7586 95.3757C79.1724 95.5013 80.0943 94.9434 80.4878 94.3813C80.6397 94.1641 80.7188 93.9384 80.7188 93.7446C79.8397 93.7042 77.3907 93.5551 75.6218 93.0696C75.485 93.0292 75.3823 93.0164 75.3138 93.0164Z" fill="black"/>
<path d="M72.5456 84.0385C72.4536 84.0385 72.3617 84.0087 72.2847 83.9491C72.0986 83.8043 72.0644 83.5381 72.2077 83.3529C72.9969 82.333 75.1379 80.7892 77.5891 82.2371C77.7923 82.3564 77.8586 82.6183 77.7388 82.8206C77.6191 83.0229 77.356 83.0889 77.1528 82.9696C74.7465 81.5473 72.9606 83.7788 72.8857 83.8746C72.8001 83.9832 72.6718 84.0385 72.5456 84.0385Z" fill="black"/>
<path d="M65.6504 104.323C65.5349 104.323 65.4194 104.276 65.3338 104.185C65.1734 104.01 65.1862 103.742 65.3616 103.582C66.4246 102.615 67.0107 100.26 67.0556 96.7705C67.0834 94.703 66.908 92.7973 66.8225 92.003C65.6504 91.9732 64.536 91.2557 63.8409 90.0526C63.0388 88.6664 63.0281 87.1057 63.8109 86.073C64.2964 85.4342 64.8932 85.0956 65.5883 85.0658C66.9444 85.0083 68.2127 86.2092 68.5293 86.535C68.6576 86.5755 68.8886 86.6181 69.0512 86.5265C69.2416 86.42 69.3186 86.1304 69.3506 85.9047C69.3763 85.7195 69.3207 85.4597 69.2116 85.1701C69.1474 85.1723 69.0876 85.1701 69.0362 85.1659C68.0844 85.0679 67.2674 83.9075 67.015 83.1537C66.8118 82.5468 66.9701 82.2338 67.139 82.0805C67.2396 81.9868 67.524 81.7952 67.9625 82.023C68.4352 82.2679 69.1132 83.0919 69.5987 83.9799C69.603 83.9713 69.6094 83.9628 69.6137 83.9543C70.4158 82.5788 69.3656 79.1527 68.8929 77.9497C68.8074 77.7304 68.9164 77.4834 69.1367 77.3982C69.3571 77.313 69.6052 77.4216 69.6907 77.6388C69.8789 78.12 71.5066 82.4063 70.3538 84.3823C70.2404 84.5761 70.1185 84.723 69.9944 84.8358C70.1591 85.2766 70.2426 85.6939 70.1976 86.0219C70.1121 86.6308 69.864 87.0524 69.4619 87.2739C68.8566 87.6061 68.1849 87.3186 68.1101 87.2867C68.0566 87.2632 68.0074 87.227 67.9689 87.1844C67.9582 87.1717 66.7669 85.8621 65.6247 85.9175C65.1926 85.9367 64.8226 86.156 64.4954 86.5882C63.9286 87.3356 63.9649 88.5578 64.5852 89.631C65.06 90.4529 65.9797 91.2812 67.154 91.1407C67.385 91.1109 67.5989 91.277 67.6288 91.509C67.6331 91.5346 67.9497 94.0131 67.9133 96.7769C67.8641 100.567 67.2011 103.071 65.9391 104.217C65.8557 104.287 65.753 104.323 65.6504 104.323ZM67.8748 83.0238C68.0245 83.373 68.3261 83.8351 68.6747 84.1076C68.4117 83.6732 68.1165 83.2729 67.8748 83.0238Z" fill="black"/>
<path d="M64.1534 85.7318C63.9181 85.7318 63.7256 85.5402 63.7256 85.306V81.2667C63.7256 81.0325 63.9181 80.8408 64.1534 80.8408C64.3886 80.8408 64.5811 81.0325 64.5811 81.2667V85.306C64.5811 85.5402 64.3886 85.7318 64.1534 85.7318Z" fill="black"/>
<path d="M82.0131 81.235C81.1169 81.235 80.3897 80.9667 79.8314 80.6346C79.378 80.8113 78.7449 80.8816 77.9321 80.8539C73.5281 80.7006 70.3925 77.1766 70.2621 77.0275C70.1059 76.8508 70.1252 76.5825 70.3027 76.4271C70.4802 76.2716 70.7519 76.2908 70.9059 76.4675C70.9358 76.5016 73.9367 79.8616 77.9621 80.0022C78.3877 80.0171 78.7149 80.0001 78.9695 79.9681C78.7834 79.785 78.6486 79.6232 78.5631 79.5124C78.146 78.9673 77.7867 78.2093 78.0326 77.7174C78.1417 77.4981 78.3578 77.3682 78.608 77.3682C79.2326 77.3682 80.1095 78.0965 80.4774 78.748C80.7448 79.2229 80.7747 79.687 80.5608 80.0575C81.1169 80.3194 81.8527 80.4834 82.7639 80.3088C82.997 80.2641 83.2943 80.1917 83.5574 80.0852C83.4975 80.0384 83.4376 79.9873 83.3777 79.9362C82.6591 79.3144 82.0345 78.3818 82.2313 77.8005C82.3168 77.5471 82.5371 77.3853 82.8195 77.3682C83.6387 77.3214 84.9028 78.2753 85.0311 79.2846C85.0525 79.4592 85.0482 79.6785 84.9605 79.9064C85.4118 80.0682 85.9487 80.115 86.5005 79.8361C86.6353 79.7679 86.7957 79.6636 86.7914 79.5508C86.7743 78.9077 84.5391 77.5045 82.4623 76.5953C82.2463 76.5016 82.1479 76.2504 82.242 76.0332C82.3361 75.8181 82.5885 75.7202 82.8066 75.8138C83.9317 76.3057 87.6042 78.0262 87.6448 79.5252C87.6534 79.834 87.5293 80.2683 86.8855 80.5941C86.1048 80.988 85.2343 80.9795 84.3894 80.5941C84.0707 80.8156 83.6023 81.0115 82.9264 81.1413C82.6077 81.2074 82.3019 81.235 82.0131 81.235ZM78.8625 78.3179C78.9545 78.5777 79.1812 78.9844 79.5962 79.3889C79.6646 79.4549 79.7459 79.5273 79.8357 79.6019C79.8828 79.472 79.7994 79.2867 79.7438 79.1824C79.5341 78.7991 79.1363 78.4733 78.8625 78.3179ZM83.1189 78.2732C83.2644 78.5819 83.6365 79.0887 84.1862 79.489C84.1884 79.4592 84.1884 79.4273 84.1841 79.3932C84.1263 78.9248 83.5232 78.4329 83.1189 78.2732Z" fill="black"/>
<path d="M63.0448 81.7292C63.34 82.4723 64.3581 82.5575 64.7795 81.8761C65.1217 81.3204 65.7719 80.656 66.9312 79.8895C70.1481 77.7687 80.6885 76.7403 84.1621 77.4898C84.7503 77.6175 85.2893 77.1597 85.2679 76.5614C85.2101 75.0304 84.8401 72.7287 83.2081 71.9451C80.6842 70.7335 79.1956 70.8677 79.1956 70.8677C79.1956 70.8677 73.4698 65.6466 67.436 68.5148C63.926 70.1841 63.2331 74.8175 63.2331 74.8175C63.2331 74.8175 62.1615 76.1504 62.1508 76.7935C62.1422 77.4216 62.2748 79.7851 63.0448 81.7292Z" fill="#A6E82F"/>
<path d="M62.1527 76.0057C62.05 76.0057 61.9473 75.9695 61.8639 75.895C61.6885 75.7374 61.6757 75.467 61.8361 75.2945C62.0693 75.039 67.6924 69.045 79.5825 70.1608C79.8178 70.1821 79.991 70.3907 79.9675 70.625C79.9461 70.8592 79.7343 71.0295 79.5012 71.0082C68.0603 69.9351 62.5227 75.8098 62.4671 75.8694C62.3837 75.9588 62.2682 76.0057 62.1527 76.0057Z" fill="black"/>
<path d="M78.1289 100.973C73.2629 100.973 69.2653 95.6478 69.2183 95.5818C69.0792 95.3923 69.1199 95.1261 69.3102 94.9877C69.5006 94.8493 69.7679 94.8898 69.9091 95.0793C69.9626 95.1538 75.4103 102.4 80.9436 99.3868C87.602 95.7607 84.5969 81.5007 84.5648 81.3581C84.5156 81.1281 84.661 80.9024 84.892 80.8513C85.123 80.8023 85.3498 80.9471 85.4011 81.1771C85.4332 81.3283 86.2075 84.9417 86.1262 89.0874C86.0171 94.6726 84.3659 98.4925 81.3543 100.132C80.2592 100.728 79.1748 100.973 78.1289 100.973Z" fill="black"/>
<path d="M76.1054 109.891C73.4852 109.891 70.1208 108.988 66.2194 105.943C66.0334 105.798 66.0013 105.53 66.1467 105.345C66.2922 105.159 66.5617 105.127 66.7477 105.272C72.0265 109.392 76.2145 109.397 78.7982 108.675C80.0837 108.315 80.9371 107.069 80.8238 105.711L80.411 100.752C80.3917 100.517 80.5671 100.311 80.8024 100.292C81.0377 100.27 81.2451 100.447 81.2644 100.681L81.6772 105.641C81.8248 107.406 80.7126 109.026 79.0314 109.497C78.1994 109.727 77.2197 109.891 76.1054 109.891Z" fill="black"/>
<path d="M106.024 121.25C105.908 121.25 105.791 121.203 105.707 121.112C105.707 121.112 103.002 118.15 95.338 109.748C88.0851 101.797 84.8767 103.177 84.8447 103.192C84.635 103.292 84.3784 103.206 84.2757 103C84.1709 102.793 84.25 102.542 84.4554 102.436C84.603 102.359 88.1749 100.628 95.9733 109.177C103.637 117.579 106.343 120.541 106.343 120.541C106.501 120.716 106.488 120.984 106.315 121.144C106.229 121.214 106.127 121.25 106.024 121.25Z" fill="black"/>
<path d="M54.3524 105.643C54.2455 105.643 54.1407 105.605 54.0573 105.526C53.9803 105.451 52.1472 103.68 52.2178 101.419C52.2584 100.152 52.883 98.9997 54.0786 97.9968C55.7427 96.5979 58.4163 95.7355 62.0246 95.4331C64.6811 95.2117 66.8264 95.3863 66.9163 95.3927C67.1515 95.4119 67.3269 95.6184 67.3077 95.8526C67.2884 96.0868 67.0852 96.2615 66.8457 96.2423C66.7601 96.2338 58.2987 95.5673 54.6326 98.6463C53.6338 99.4852 53.1097 100.426 53.0755 101.44C53.0135 103.318 54.6348 104.894 54.6519 104.911C54.8208 105.075 54.8273 105.343 54.6647 105.513C54.577 105.601 54.4658 105.643 54.3524 105.643Z" fill="black"/>
<path d="M80.0731 115.742C79.7416 115.742 79.4101 115.655 79.1085 115.482C78.9203 115.374 60.2243 104.608 59.373 102.813C59.1634 102.37 59.1741 101.929 59.4072 101.535C60.3184 99.996 64.7095 99.6659 65.2057 99.6319C65.4367 99.6148 65.6442 99.7937 65.6613 100.028C65.6763 100.262 65.4988 100.464 65.2635 100.481C63.5588 100.594 60.6606 101.097 60.1451 101.968C60.0831 102.072 60.036 102.21 60.1473 102.449C60.6905 103.511 71.9561 110.393 79.5363 114.746C79.8421 114.92 80.2015 114.937 80.5202 114.792C80.8431 114.646 81.0656 114.364 81.1362 114.017L82.0538 109.378C82.058 109.352 82.0666 109.327 82.0751 109.303C82.0816 109.286 82.7639 107.553 83.1596 105.524C83.6665 102.928 83.4868 101.029 82.642 100.03C82.4901 99.8512 82.5115 99.5808 82.6933 99.4296C82.8729 99.2784 83.1446 99.2997 83.2965 99.4807C85.6535 102.262 83.1275 108.956 82.8858 109.578L81.9746 114.179C81.8527 114.799 81.4506 115.304 80.8752 115.565C80.6164 115.685 80.3426 115.742 80.0731 115.742Z" fill="black"/>
<path d="M40.1929 165.555C40.0261 165.555 39.8699 165.457 39.7994 165.298C37.1193 159.072 38.6636 150.06 40.4303 143.596C41.7629 138.72 43.4611 134.376 44.7573 131.587C43.9338 131.961 43.0355 132.338 42.0644 132.713C30.4845 137.18 20.4296 140.606 14.6888 137.276C12.2954 135.888 10.8153 133.362 10.2848 129.775C9.58113 124.994 10.95 118.185 14.3573 109.536C17.1528 102.441 20.6499 95.8506 22.485 92.5544C22.8465 91.9029 23.4732 91.4408 24.2026 91.2853C24.9555 91.1257 25.7447 91.3003 26.3693 91.7666C28.8825 93.6404 32.418 94.3537 34.3024 94.6113C34.9205 94.6965 35.466 95.018 35.8381 95.5205C36.2124 96.0252 36.3622 96.6469 36.2595 97.2666C35.836 99.8302 34.7815 104.447 32.1528 111.884C31.7079 113.143 31.2545 114.271 30.801 115.28C33.1068 113.992 35.7889 112.683 38.5695 111.358C44.9712 108.307 52.4466 106.075 52.5215 106.054C52.746 105.988 52.9856 106.116 53.054 106.342C53.1225 106.567 52.992 106.804 52.7653 106.872C52.6904 106.893 45.277 109.108 38.9374 112.129C35.8039 113.622 32.6875 115.148 30.1572 116.635C28.1766 120.557 26.2409 122.275 24.979 122.505C24.3865 122.614 24.0807 122.369 23.948 122.216C23.8154 122.058 23.6208 121.709 23.8326 121.13C24.4314 119.488 26.5596 117.782 29.4985 116.032C30.108 114.806 30.7305 113.341 31.3443 111.601C33.9516 104.221 34.9975 99.6577 35.4146 97.1281C35.4788 96.7364 35.3847 96.3424 35.1494 96.0252C34.9163 95.71 34.574 95.5077 34.1869 95.4545C31.7849 95.1245 28.3927 94.3366 25.8581 92.448C25.4303 92.1286 24.8934 92.0093 24.3822 92.1179C23.8882 92.2244 23.4796 92.5246 23.2337 92.9675C21.407 96.2466 17.9314 102.798 15.1529 109.846C11.8013 118.355 10.4474 125.018 11.1297 129.651C11.6259 133.017 12.9306 135.27 15.1166 136.539C20.9686 139.936 32.4929 135.49 41.7522 131.919C43.1253 131.389 44.3167 130.869 45.3434 130.371C45.7519 129.568 46.092 128.98 46.3337 128.659C48.4319 125.854 50.5366 124.703 51.5312 125.011C51.8905 125.124 52.1129 125.416 52.1236 125.791C52.1621 126.932 50.2179 128.908 45.9594 131.016C42.8558 137.231 36.4071 155.269 40.58 164.963C40.6742 165.18 40.5715 165.43 40.3555 165.523C40.3063 165.545 40.2485 165.555 40.1929 165.555ZM51.1697 125.803C50.6756 125.803 49.0394 126.468 47.0224 129.166C46.9219 129.3 46.8064 129.474 46.6802 129.687C50.2863 127.737 51.3408 126.212 51.2745 125.82C51.251 125.81 51.2146 125.803 51.1697 125.803ZM28.6964 117.529C26.5832 118.894 25.0774 120.21 24.6368 121.419C24.5812 121.572 24.5961 121.653 24.6025 121.666C24.6154 121.675 24.7245 121.704 24.9576 121.632C25.7255 121.396 27.1222 120.25 28.6964 117.529Z" fill="black"/>
<path d="M95.3356 162.2C95.1238 162.2 94.9399 162.042 94.9121 161.827C94.8821 161.593 95.049 161.38 95.2821 161.35C96.5911 161.184 97.6391 160.543 98.4904 159.387C102.601 153.797 99.947 139.003 99.9213 138.854C98.2787 129.898 97.1536 125.278 92.5593 115.496C92.4588 115.283 92.5507 115.029 92.7646 114.929C92.9785 114.829 93.233 114.921 93.3336 115.134C97.9685 125.007 99.1043 129.668 100.762 138.701C100.847 139.171 101.607 143.449 101.641 148.387C101.68 153.748 100.85 157.62 99.1791 159.891C98.1974 161.227 96.9226 162.002 95.389 162.195C95.3719 162.198 95.3548 162.2 95.3356 162.2Z" fill="black"/>
<path d="M36.4025 94.6097C35.6646 94.6097 35.2453 94.5458 35.1983 94.5394C34.9651 94.5011 34.8069 94.2839 34.8432 94.0518C34.8796 93.8197 35.0999 93.6622 35.333 93.6984C35.363 93.7026 38.4152 94.154 43.0801 92.4059C44.7891 91.765 46.3291 90.9494 47.4178 90.1062C48.5278 89.246 48.7995 88.6519 48.7888 88.456C48.7866 88.4347 48.7845 88.3666 48.5706 88.3134C47.8477 88.1366 46.3355 88.6519 45.0008 89.1097C43.4351 89.6463 42.0834 90.1084 41.2663 89.8443C41.0375 89.7698 40.6503 89.6335 40.1605 89.4589C35.4785 87.7981 32.8284 87.0848 32.283 87.336C32.1568 87.5085 31.9194 87.5639 31.7269 87.4574C31.5215 87.3424 31.4467 87.0826 31.5622 86.8782C32.0498 86.0116 34.2101 86.4438 40.4471 88.6562C40.9305 88.8287 41.3134 88.9628 41.5315 89.0331C42.0748 89.2098 43.4822 88.7286 44.7249 88.3027C46.3098 87.7597 47.8092 87.2466 48.776 87.4851C49.5203 87.6682 49.6315 88.1877 49.6422 88.4028C49.7235 89.7698 47.0328 91.831 43.3817 93.2001C40.2054 94.3925 37.7628 94.6097 36.4025 94.6097Z" fill="black"/>
<path d="M26.3308 91.2725C26.2688 91.2725 26.2046 91.2597 26.1448 91.2299C25.933 91.1277 25.8432 90.8722 25.9458 90.6614C25.9587 90.6358 26.4014 89.701 26.5533 88.4639C26.7608 86.7839 29.9969 84.1968 33.8704 84.1968C33.8747 84.1968 33.8768 84.1968 33.8811 84.1968C34.3859 84.1968 34.7645 84.0627 35.0383 83.7837C35.7633 83.0491 35.7291 81.401 35.7013 79.9467C35.6714 78.403 35.6436 77.0679 36.544 76.7208C36.8264 76.6122 37.3868 76.5207 37.9578 77.1403C38.6722 77.9154 39.1727 79.655 39.2219 81.3478C39.4123 81.1817 39.5834 81.0348 39.7203 80.9198C39.7096 80.5408 39.701 79.7125 39.7866 78.8374C39.9556 77.1148 40.3898 76.1395 41.1191 75.8563C41.4763 75.7179 41.8356 75.7861 42.1094 76.0437C42.704 76.6059 42.8623 78.1113 42.8046 79.5166C43.8911 77.9622 45.1552 76.329 45.7391 76.2141C46.4642 76.0714 46.7765 76.4951 46.8749 76.6825C47.5272 77.9175 45.7947 81.7481 44.4044 84.0882C44.7467 83.7986 45.1188 83.4643 45.5081 83.0874C46.0108 82.5998 46.3423 81.9163 46.6931 81.1902C47.0888 80.3726 47.4994 79.5251 48.1903 78.9438C48.8769 78.3668 49.3816 78.6968 49.5185 78.8118C50.3249 79.4825 50.1859 81.8631 48.5539 84.6823C47.1337 87.1395 44.1585 88.8238 44.0323 88.894C43.8505 88.9962 43.6238 88.9515 43.4911 88.7918C43.4698 88.7663 41.2004 86.1068 35.5773 85.5148C35.342 85.4893 35.173 85.2806 35.1965 85.0464C35.2222 84.8122 35.4339 84.6418 35.6671 84.6674C40.6464 85.1912 43.1361 87.2311 43.8975 87.9784C44.659 87.5036 46.7529 86.0855 47.8117 84.2564C48.9902 82.2187 49.2961 80.4641 49.0822 79.6976C49.0373 79.5336 48.9795 79.4698 48.9624 79.4613C48.9517 79.4613 48.8704 79.4825 48.7378 79.5933C48.186 80.0575 47.8331 80.7857 47.4588 81.5586C47.0909 82.3188 46.7102 83.1045 46.1006 83.6964C45.1509 84.6184 44.3381 85.2465 43.9382 85.5383C42.9714 86.2473 42.6506 86.358 42.3768 86.0791C42.0431 85.7384 42.4367 85.3551 42.5843 85.2104C43.0398 84.7675 44.09 83.0789 44.9905 81.1264C46.0407 78.848 46.3102 77.4491 46.1134 77.0764C46.1027 77.0551 46.0813 77.0147 45.9209 77.0424C45.4354 77.2851 43.8975 79.3526 42.5971 81.3286C42.5479 81.5778 42.4944 81.7928 42.4367 81.9653C41.7586 84.003 41.3009 85.2487 40.6229 85.5106C40.4154 85.5915 40.1951 85.5745 40.0005 85.4659C39.9021 85.4105 39.6775 85.2359 39.7438 84.8207C39.8657 84.0541 41.0314 82.1697 41.7993 80.9901C42.1051 79.342 41.9383 77.0573 41.5127 76.6548C41.4827 76.6272 41.4784 76.6208 41.4228 76.6421C40.9993 76.806 40.4368 78.3327 40.5758 81.0838C40.5823 81.2179 40.5266 81.3457 40.424 81.4309C40.0069 81.7779 39.5641 82.1697 39.1706 82.5338C39.1 83.1577 38.9524 83.739 38.715 84.2202C38.268 85.123 37.7611 85.0145 37.5643 84.9272C37.0809 84.7121 36.9846 84.0116 37.1964 83.492C37.329 83.1684 37.8167 82.6424 38.3514 82.1293C38.4669 80.4492 38.0156 78.4605 37.3226 77.7067C37.0638 77.4235 36.9076 77.4831 36.8499 77.5066C36.5077 77.6386 36.5333 78.9566 36.5526 79.9212C36.5847 81.5437 36.6232 83.3813 35.6457 84.3735C35.2094 84.8164 34.6126 85.0421 33.8768 85.0421C33.8726 85.0421 33.8683 85.0421 33.8661 85.0421C30.1744 85.0421 27.5286 87.5164 27.3981 88.564C27.2249 89.9566 26.7308 90.985 26.7116 91.0276C26.6431 91.183 26.4891 91.2725 26.3308 91.2725Z" fill="black"/>
<path d="M76.2396 86.4819C76.6519 86.4819 76.9861 86.0711 76.9861 85.5642C76.9861 85.0574 76.6519 84.6465 76.2396 84.6465C75.8274 84.6465 75.4932 85.0574 75.4932 85.5642C75.4932 86.0711 75.8274 86.4819 76.2396 86.4819Z" fill="black"/>
<path d="M82.2758 86.5981C82.688 86.5981 83.0222 86.1873 83.0222 85.6804C83.0222 85.1736 82.688 84.7627 82.2758 84.7627C81.8635 84.7627 81.5293 85.1736 81.5293 85.6804C81.5293 86.1873 81.8635 86.5981 82.2758 86.5981Z" fill="black"/>
<path d="M57.2553 157.712C57.1205 157.712 56.9901 157.651 56.9066 157.534C56.7697 157.342 56.8168 157.076 57.0093 156.939C62.1298 153.33 62.8934 141.817 62.9019 141.7C62.9169 141.466 63.1201 141.285 63.3554 141.302C63.5907 141.317 63.7703 141.519 63.7554 141.753C63.7254 142.243 62.9597 153.79 57.5034 157.636C57.4264 157.687 57.3408 157.712 57.2553 157.712Z" fill="black"/>
<path d="M95.3276 154.9C95.2506 154.9 95.1736 154.881 95.1052 154.839C89.3045 151.3 88.0212 141.017 87.9698 140.581C87.942 140.347 88.1089 140.136 88.3441 140.108C88.5773 140.083 88.7912 140.246 88.819 140.481C88.8318 140.583 90.1044 150.791 95.55 154.112C95.7511 154.236 95.8153 154.498 95.6912 154.698C95.6121 154.828 95.4709 154.9 95.3276 154.9Z" fill="black"/>
<path d="M66.8113 140.958C66.5995 140.958 66.4177 140.802 66.3878 140.589C66.3557 140.357 66.5204 140.142 66.7557 140.11C66.8733 140.095 78.5559 138.556 85.7982 139.39C86.0335 139.418 86.2003 139.629 86.1746 139.863C86.1468 140.097 85.9351 140.268 85.6998 140.238C78.5623 139.416 66.9845 140.941 66.869 140.956C66.8498 140.956 66.8305 140.958 66.8113 140.958Z" fill="black"/>
<path d="M107.143 111.205C107.077 111.205 107.01 111.19 106.948 111.158C106.831 111.096 104.007 109.616 101.165 105.241C99.0451 101.981 98.1126 98.7292 98.9938 97.6794C99.1328 97.5134 99.5307 97.1599 100.239 97.4537C101.158 97.8349 102.059 99.1338 103.008 100.507C103.753 101.582 104.598 102.803 105.141 102.984C105.357 103.056 105.746 103.173 106.238 103.322C112.576 105.234 114.569 106.163 114.445 107.148C114.415 107.383 114.201 107.549 113.968 107.517C113.75 107.489 113.592 107.304 113.594 107.091C113.305 106.565 110.749 105.571 105.992 104.138C105.494 103.986 105.1 103.869 104.871 103.793C104.057 103.522 103.246 102.349 102.307 100.993C101.507 99.8364 100.6 98.5269 99.9114 98.2416C99.7082 98.1585 99.6654 98.2096 99.6504 98.2267C99.2398 98.7143 99.6376 101.323 101.883 104.781C104.591 108.948 107.314 110.389 107.342 110.404C107.551 110.513 107.633 110.768 107.526 110.977C107.447 111.122 107.297 111.205 107.143 111.205Z" fill="black"/>
<path d="M116.282 113.86C116.256 113.86 116.229 113.858 116.203 113.851C115.972 113.807 115.818 113.585 115.863 113.355C115.871 113.308 116.087 112.19 116.78 110.968C117.018 110.551 117.048 109.484 116.552 108.13C116 106.622 114.977 105.264 113.675 104.306C113.08 103.869 112.736 103.337 112.648 102.719C112.453 101.344 113.581 99.8874 114.575 98.6034C115.166 97.8411 115.974 96.7956 115.777 96.4869C115.743 96.4336 115.653 96.2931 115.277 96.3676C114.269 96.5635 112.719 97.8965 111.81 99.3146C111.934 100.043 112.011 100.754 111.925 101.093C111.786 101.636 111.29 102.142 110.772 102.029C110.561 101.983 110.088 101.77 110.27 100.78C110.366 100.254 110.595 99.6979 110.911 99.1549C110.813 98.629 110.691 98.0519 110.563 97.526C110.531 97.3961 110.563 97.2598 110.648 97.1555C111.885 95.6543 112.99 93.6698 112.618 93.0821C112.586 93.0332 112.58 93.0332 112.539 93.0395C111.955 93.1119 110.454 94.8558 109.722 96.3506C109.637 97.7517 109.448 99.9619 109.089 100.652C108.894 101.027 108.612 101.033 108.499 101.018C108.278 100.99 108.09 100.871 107.972 100.686C107.583 100.073 107.96 98.8014 108.625 96.7786C108.683 96.6019 108.77 96.3911 108.882 96.159C109.016 93.7976 109.014 91.2233 108.768 90.742C108.657 90.6249 108.616 90.6441 108.595 90.6547C108.214 90.8378 107.596 92.1218 107.081 94.5769C106.638 96.6807 106.475 98.6588 106.576 99.2848C106.61 99.4892 106.698 100.03 106.225 100.107C105.836 100.171 105.648 99.8895 105.292 98.7482C105.145 98.2755 104.867 97.2896 104.653 95.9865C104.516 95.1497 104.679 94.2916 104.837 93.4633C104.997 92.6222 105.149 91.828 104.982 91.1274C104.942 90.9614 104.89 90.8953 104.873 90.8868C104.86 90.8868 104.779 90.9039 104.642 91.0082C104.011 91.4979 103.211 93.0907 102.944 95.4265C102.702 97.526 103.541 99.9044 103.87 100.737C104.929 100.586 108.15 100.42 112.466 102.943C112.669 103.062 112.738 103.324 112.618 103.526C112.498 103.729 112.237 103.797 112.032 103.678C107.158 100.829 103.744 101.623 103.71 101.631C103.509 101.682 103.299 101.58 103.216 101.393C103.156 101.261 101.77 98.1477 102.093 95.3307C102.465 92.0984 103.772 90.1011 104.822 90.0394C104.999 90.0266 105.605 90.0607 105.812 90.9315C106.022 91.8088 105.846 92.7329 105.675 93.6251C105.523 94.4172 105.382 95.1646 105.496 95.8524C105.583 96.3847 105.684 96.8744 105.787 97.3088C106.067 94.6046 106.961 90.4993 108.221 89.8924C108.413 89.7988 108.914 89.6433 109.414 90.1884C109.816 90.6271 109.859 92.6903 109.803 94.5833C110.597 93.4164 111.621 92.3007 112.436 92.2006C112.811 92.1559 113.14 92.3135 113.345 92.635C113.762 93.2929 113.529 94.3363 112.637 95.8204C112.184 96.5763 111.681 97.2364 111.446 97.5345C111.487 97.707 111.538 97.9284 111.591 98.1733C112.642 96.8404 114.083 95.7395 115.121 95.5372C115.948 95.3754 116.346 95.78 116.509 96.0355C117.026 96.8467 116.207 97.905 115.262 99.1272C114.37 100.279 113.36 101.587 113.504 102.606C113.557 102.994 113.782 103.326 114.19 103.626C115.628 104.683 116.757 106.179 117.364 107.845C117.893 109.288 117.957 110.647 117.533 111.394C116.913 112.489 116.712 113.511 116.71 113.521C116.663 113.717 116.483 113.86 116.282 113.86Z" fill="black"/>
<path d="M68.1126 24.4102C68.1126 24.4102 61.8029 32.1991 67.8838 37.9567C73.9646 43.7144 80.6765 33.9984 77.0724 30.4403C73.4684 26.8823 61.5783 38.2463 76.5163 48.8651" stroke="#A6E82F" stroke-width="15.8758" stroke-miterlimit="10"/>
<path d="M145.641 24.1457C145.641 24.1457 155.308 26.8776 158.252 19.0546C161.195 11.2315 149.587 8.88506 147.709 13.5759C145.831 18.2667 160.987 24.7164 164.959 6.875" stroke="#A6E82F" stroke-width="15.8758" stroke-miterlimit="10"/>
<path d="M117.102 22.66C117.102 22.66 117.427 24.308 117.102 25.7049C116.851 26.778 115.527 28.6369 115.527 28.6369C115.527 28.6369 119.978 28.2281 121.073 27.683C122.785 23.5245 121.073 20.1836 121.073 20.1836L117.102 22.66Z" fill="#97CAFA"/>
<path d="M90.7225 15.7738C90.7225 15.7738 89.7173 14.4259 89.4071 13.0248C89.1697 11.9495 89.5611 9.70312 89.5611 9.70312C89.5611 9.70312 85.7197 11.9793 84.9668 12.9397C85.2192 17.4282 88.2072 19.7087 88.2072 19.7087L90.7225 15.7738Z" fill="#A7E92E"/>
<path d="M163.732 45.5136C163.732 45.5136 164.874 44.2786 166.198 43.7122C167.214 43.2778 169.505 43.2416 169.505 43.2416C169.505 43.2416 166.54 39.9114 165.449 39.3535C161.069 40.4395 159.375 43.7888 159.375 43.7888L163.732 45.5136Z" fill="#97CAFA"/>
</svg>
