<svg width="30" height="30" viewBox="0 0 30 30" fill="none" xmlns="http://www.w3.org/2000/svg">
<path fill-rule="evenodd" clip-rule="evenodd" d="M7.5 23.75H22.5V25.25C22.5 25.8023 22.9477 26.25 23.5 26.25H24C24.5523 26.25 25 25.8023 25 25.25V23.4764C25.7618 23.1324 26.2607 22.4616 26.5625 21.45C26.85 20.475 27.15 19.225 27.3 18.5125C27.4375 17.8625 27.5 17.4 27.5 16.9625C27.5 16 27.2375 15.1375 26.6 14.0375L22.725 6.9125C22.075 5.675 20.925 5 19.4625 5H10.5375C9.075 5 7.925 5.675 7.275 6.9L3.4125 14.0125C2.7625 15.1375 2.5 16 2.5 16.9625C2.5 17.4 2.5625 17.8625 2.7 18.5C2.85 19.2125 3.15 20.4625 3.4375 21.4375C3.73493 22.4504 4.25466 23.1169 5 23.4636V25.25C5 25.8023 5.44772 26.25 6 26.25H6.5C7.05228 26.25 7.5 25.8023 7.5 25.25V23.75ZM23.55 21.25H6.45C6.1625 21.25 5.925 21.0625 5.85 20.7875C5.6 19.85 5.2875 18.65 5.1375 17.975C5.11018 17.852 5.08752 17.7393 5.06901 17.6354L8.74052 18.4876C9.2785 18.6125 9.81585 18.2776 9.94072 17.7396L10.0538 17.2525C10.1786 16.7146 9.84375 16.1772 9.30577 16.0523L5.62185 15.1973L6.40735 13.75H23.6014L24.3921 15.202L20.6887 16.0584C20.1506 16.1828 19.8152 16.7199 19.9397 17.258L20.0523 17.7452C20.1767 18.2833 20.7138 18.6186 21.2519 18.4942L24.9186 17.6463C24.8992 17.7494 24.8763 17.8624 24.85 17.9875C24.7 18.6625 24.3875 19.8625 24.1375 20.8C24.075 21.0625 23.825 21.25 23.55 21.25ZM22.2402 11.25H7.76425L9.4875 8.075C9.6625 7.7375 9.9125 7.5 10.5375 7.5H19.4625C20.0875 7.5 20.3375 7.7375 20.525 8.1L22.2402 11.25Z" fill="#323942"/>
</svg>
