<svg width="30" height="30" viewBox="0 0 30 30" fill="none" xmlns="http://www.w3.org/2000/svg">
<path d="M20.4184 4.58452C20.4184 6.15538 19.145 7.42881 17.5741 7.42881C16.0033 7.42881 14.7299 6.15538 14.7299 4.58452C14.7299 3.01366 16.0033 1.74023 17.5741 1.74023C19.145 1.74023 20.4184 3.01366 20.4184 4.58452Z" fill="#323942"/>
<path fill-rule="evenodd" clip-rule="evenodd" d="M17.5741 6.38714C18.5697 6.38714 19.3768 5.58008 19.3768 4.58452C19.3768 3.58896 18.5697 2.7819 17.5741 2.7819C16.5786 2.7819 15.7715 3.58896 15.7715 4.58452C15.7715 5.58008 16.5786 6.38714 17.5741 6.38714ZM17.5741 7.42881C19.145 7.42881 20.4184 6.15538 20.4184 4.58452C20.4184 3.01366 19.145 1.74023 17.5741 1.74023C16.0033 1.74023 14.7299 3.01366 14.7299 4.58452C14.7299 6.15538 16.0033 7.42881 17.5741 7.42881Z" fill="#323942"/>
<path fill-rule="evenodd" clip-rule="evenodd" d="M16.9114 8.52119C17.5874 8.66102 18.0221 9.32242 17.8823 9.99847L17.6661 11.0434C17.7855 11.2981 18.0397 11.6806 18.5033 11.9643C19.0847 12.3201 20.2027 12.6454 22.2506 12.0195C22.9108 11.8177 23.6095 12.1893 23.8113 12.8495C24.0131 13.5098 23.6415 14.2085 22.9813 14.4103C20.4302 15.19 18.5348 14.9145 17.1984 14.0967C17.1534 14.0692 17.1093 14.0412 17.066 14.0127L16.7929 15.368L19.7381 19.5806C19.8066 19.6785 19.8606 19.7857 19.8986 19.899L21.3513 24.225L22.1141 23.9652C22.7676 23.7427 23.4777 24.092 23.7003 24.7455C23.9228 25.399 23.5735 26.1092 22.92 26.3318L20.9689 26.9962C20.6542 27.1034 20.3097 27.0808 20.0117 26.9334C19.7137 26.786 19.4867 26.526 19.3809 26.2109L17.586 20.8655L15.6636 18.1158L13.9587 21.6715C13.8419 21.915 13.6494 22.1142 13.4101 22.2391L9.38196 24.3421L9.85447 25.2211C10.1813 25.8292 9.9534 26.5871 9.34533 26.914C8.73726 27.2408 7.97935 27.0129 7.65247 26.4048L6.5809 24.4114C6.42269 24.1171 6.3889 23.7717 6.48707 23.4523C6.58524 23.1329 6.8072 22.8661 7.1034 22.7115L11.8843 20.2155L14.2672 15.2458L15.1482 10.8743L15.4341 9.49209C15.5739 8.81605 16.2353 8.38136 16.9114 8.52119Z" fill="#323942"/>
<path d="M6.6632 6.98796C6.79349 6.42761 7.35337 6.07898 7.91371 6.20927L13.2721 7.45522C13.8324 7.58551 14.1811 8.14539 14.0508 8.70574L12.5291 15.2498C12.3988 15.8101 11.839 16.1587 11.2786 16.0284L5.92024 14.7825C5.35989 14.6522 5.01126 14.0923 5.14156 13.532L6.6632 6.98796Z" fill="#323942"/>
<path fill-rule="evenodd" clip-rule="evenodd" d="M13.0362 8.46982L7.6778 7.22387L6.15616 13.7679L11.5145 15.0138L13.0362 8.46982ZM7.91371 6.20927C7.35337 6.07898 6.79349 6.42761 6.6632 6.98796L5.14156 13.532C5.01126 14.0923 5.35989 14.6522 5.92024 14.7825L11.2786 16.0284C11.839 16.1587 12.3988 15.8101 12.5291 15.2498L14.0508 8.70574C14.1811 8.14539 13.8324 7.58551 13.2721 7.45522L7.91371 6.20927Z" fill="#323942"/>
</svg>
