<svg width="30" height="30" viewBox="0 0 30 30" fill="none" xmlns="http://www.w3.org/2000/svg">
<path fill-rule="evenodd" clip-rule="evenodd" d="M17.7134 22.5H12.2866C11.7718 23.9565 10.3828 25 8.75 25C7.11723 25 5.72818 23.9565 5.21338 22.5H3.69048C3.03299 22.5 2.5 21.9404 2.5 21.25V7.5C2.5 6.80964 3.03299 6.25 3.69048 6.25H19.1667C23.769 6.25 27.5 8.91751 27.5 13.75V21.25C27.5 21.9404 26.967 22.5 26.3095 22.5H24.7866C24.2718 23.9565 22.8828 25 21.25 25C19.6172 25 18.2282 23.9565 17.7134 22.5ZM4.88095 8.75V12.5H16.25V8.75H4.88095ZM18.75 8.75V12.5H25C24.4485 9.6472 22.0464 8.75 19.1667 8.75H18.75ZM4.88095 20V15H25.119V20H24.7866C24.2718 18.5435 22.8828 17.5 21.25 17.5C19.6172 17.5 18.2282 18.5435 17.7134 20H12.2866C11.7718 18.5435 10.3828 17.5 8.75 17.5C7.11723 17.5 5.72818 18.5435 5.21338 20H4.88095ZM10 21.25C10 21.9404 9.44036 22.5 8.75 22.5C8.05964 22.5 7.5 21.9404 7.5 21.25C7.5 20.5596 8.05964 20 8.75 20C9.44036 20 10 20.5596 10 21.25ZM21.25 22.5C21.9404 22.5 22.5 21.9404 22.5 21.25C22.5 20.5596 21.9404 20 21.25 20C20.5596 20 20 20.5596 20 21.25C20 21.9404 20.5596 22.5 21.25 22.5Z" fill="#323942"/>
</svg>
