<svg width="30" height="30" viewBox="0 0 30 30" fill="none" xmlns="http://www.w3.org/2000/svg">
<path fill-rule="evenodd" clip-rule="evenodd" d="M1.25 20.0001C1.25 21.6906 2.37058 23.1223 3.91089 23.5894C4.37772 25.128 5.80748 26.2499 7.5 26.2499C9.13253 26.2499 10.5208 25.2055 11.036 23.7501H17.714C18.2292 25.2055 19.6175 26.2499 21.25 26.2499C22.8825 26.2499 24.2708 25.2055 24.786 23.7501H27.5C27.8294 23.7501 28.1512 23.6188 28.3838 23.3813C28.6169 23.1501 28.75 22.8313 28.75 22.5001V13.75C28.75 13.4188 28.6169 13.1 28.3838 12.8687L25.8838 10.3687C25.6512 10.1312 25.3294 10 25 10H20V8.75002C19.9994 6.68126 18.3212 5 16.25 5H5C2.92812 5 1.25 6.68126 1.25 8.75002V20.0001ZM3.75 20C3.75 20.3501 3.88812 20.6563 4.11625 20.8813C4.72039 19.6212 6.0083 18.75 7.5 18.75C9.13261 18.75 10.521 19.7945 11.0361 21.2501H17.5V8.75001C17.4994 8.4 17.3619 8.09373 17.1338 7.86873C16.9038 7.63748 16.5994 7.5 16.25 7.5H5C4.65 7.5 4.34562 7.63748 4.11625 7.86873C3.88812 8.09373 3.75 8.4 3.75 8.75001V20ZM8.38375 21.6187C8.61188 21.8437 8.74937 22.15 8.75 22.5C8.74937 22.8499 8.61188 23.1562 8.38375 23.3812C8.15375 23.6125 7.84937 23.7499 7.5 23.7499C7.15 23.7499 6.84562 23.6125 6.61625 23.3812C6.38812 23.1562 6.25 22.8499 6.25 22.5C6.25 22.15 6.38812 21.8437 6.61625 21.6187C6.84562 21.3874 7.15 21.25 7.5 21.25C7.84937 21.25 8.15375 21.3874 8.38375 21.6187ZM20 12.5V18.9636C20.3909 18.8253 20.8117 18.75 21.25 18.75C22.8826 18.75 24.271 19.7945 24.7861 21.25H26.25V14.7862C26.25 14.4549 26.1184 14.1371 25.8842 13.9027L24.8487 12.8664C24.6142 12.6318 24.2961 12.5 23.9645 12.5H20ZM20 22.4977C20.0012 22.1486 20.1386 21.8432 20.3662 21.6187C20.5962 21.3874 20.9006 21.25 21.25 21.25C21.5994 21.25 21.9037 21.3874 22.1337 21.6187C22.3619 21.8437 22.4994 22.15 22.5 22.5C22.4994 22.8499 22.3619 23.1562 22.1337 23.3812C21.9037 23.6125 21.5994 23.7499 21.25 23.7499C20.9006 23.7499 20.5962 23.6125 20.3662 23.3812C20.1385 23.1566 20.0011 22.851 20 22.5018L20 22.4977Z" fill="#323942"/>
</svg>
