<svg width="30" height="30" viewBox="0 0 30 30" fill="none" xmlns="http://www.w3.org/2000/svg">
<path fill-rule="evenodd" clip-rule="evenodd" d="M10 10.125V8.7625C10 5.3125 12.775 2.5 16.225 2.5C19.6708 2.5 22.4807 5.30571 22.4875 8.75H26.225V11.25H22.5V16.25V16.6875C22.5 17.8375 21.55 18.7625 20.4125 18.7625H14.9375V16.2625H19.975V11.2625H20V11.25H12.5V19.5125L14.8625 21.9375L17.8875 19.1125C18.0856 18.9144 18.4494 18.7875 18.8875 18.7875C24.1 18.8375 27.5 22.2375 27.5 27.5H25C25 23.6875 22.875 21.425 19.2 21.25L15.675 24.5875C15.175 25.05 14.4125 25.0375 13.9375 24.55L10.6058 21.25C6.98523 21.3973 5 23.6096 5 27.5H2.5C2.5 22.4571 5.35942 19.1656 10 18.75V10.125ZM19.9875 8.75C19.9807 6.68073 18.2958 5 16.225 5C14.1542 5 12.5068 6.68073 12.5 8.75H19.9875Z" fill="#323942"/>
<path d="M22.4875 25H18.75V27.5H22.4875V25Z" fill="#323942"/>
</svg>
